<svg width="141" height="90" viewBox="0 0 141 90" fill="none" xmlns="http://www.w3.org/2000/svg">
<g clip-path="url(#clip0_6508_2137)">
<path d="M38.4856 85.0402C38.0525 84.9241 37.7336 84.5279 37.7318 84.0579C37.7318 83.4976 38.187 83.0423 38.7492 83.0423H138C138.562 83.0423 139.015 83.4976 139.015 84.0579C139.015 84.62 138.56 85.0753 137.998 85.0753H38.7492C38.6588 85.0753 38.5704 85.0642 38.4856 85.0402ZM38.4856 89.1503C38.5685 89.1725 38.6588 89.1854 38.7492 89.1854H138C138.562 89.1854 139.015 88.7301 139.017 88.168C139.017 87.6077 138.562 87.1543 138 87.1506H38.7492C38.187 87.1506 37.7336 87.604 37.7336 88.168C37.7336 88.638 38.0525 89.0324 38.4874 89.1503H38.4856ZM38.4856 40.3066C38.5704 40.3287 38.6588 40.3416 38.7492 40.3416H137.998C138.558 40.3416 139.015 39.8863 139.015 39.326C139.015 38.7639 138.56 38.3105 138 38.3087H38.751C38.1889 38.3087 37.7336 38.7639 37.7336 39.3242C37.7336 39.7942 38.0525 40.1905 38.4856 40.3066ZM38.4856 44.4185C38.5704 44.4406 38.6588 44.4535 38.7492 44.4535H138C138.56 44.4535 139.015 43.9983 139.015 43.4361C139.015 42.8758 138.562 42.4206 138 42.4206H38.7492C38.187 42.4206 37.7336 42.8758 37.7318 43.4361C37.7318 43.9061 38.0506 44.3024 38.4837 44.4185H38.4856ZM12.721 89.4157C14.1678 89.8028 15.6681 90 17.1776 90C26.6474 90 34.3534 82.294 34.3534 72.8242C34.3534 69.5122 33.4152 66.32 31.6311 63.5498C33.4152 60.7796 34.3534 57.5892 34.3534 54.2754C34.3534 50.9615 33.4152 47.7711 31.6311 45.0009C33.4152 42.2289 34.3534 39.0385 34.3552 35.7246C34.3552 32.4108 33.4152 29.2222 31.633 26.4502C33.4171 23.6782 34.3552 20.4878 34.3552 17.1758C34.3552 9.41451 29.1245 2.59139 21.636 0.58426C20.1892 0.197211 18.6908 0 17.1795 0C7.70596 0.00184309 0 7.70597 0 17.1758C0 20.4896 0.939977 23.68 2.72225 26.4502C0.939977 29.2222 0 32.4126 0 35.7265C0 39.0404 0.938134 42.2308 2.72225 45.0009C0.939977 47.7711 0 50.9615 0 54.2754C0 57.5874 0.938134 60.7796 2.72225 63.5498C0.939977 66.32 0 69.5104 0 72.8242C0 80.5855 5.23069 87.4086 12.721 89.4157ZM21.0702 2.68723C27.6114 4.44001 32.1785 10.3987 32.1785 17.1776C32.1785 20.2906 31.2275 23.2819 29.4305 25.8236C29.1651 26.1995 29.1651 26.7027 29.4305 27.0787C31.2275 29.6203 32.1785 32.6117 32.1785 35.7246C32.1785 38.8395 31.2275 41.8308 29.4305 44.3724C29.1632 44.7484 29.1632 45.2516 29.4305 45.6276C31.2275 48.1692 32.1767 51.1605 32.1767 54.2735C32.1767 57.3883 31.2275 60.3778 29.4305 62.9195C29.1632 63.2955 29.1632 63.7986 29.4305 64.1764C31.2275 66.7181 32.1785 69.7094 32.1785 72.8224C32.1785 81.0942 25.4494 87.8233 17.1776 87.8233C15.8561 87.8233 14.5475 87.6519 13.285 87.3128C6.74387 85.56 2.17669 79.6013 2.17669 72.8224C2.17669 69.7076 3.12773 66.7181 4.92474 64.1746C5.19015 63.7986 5.19015 63.2955 4.92474 62.9195C3.12773 60.3778 2.17669 57.3883 2.17669 54.2735C2.17669 51.1587 3.12773 48.1692 4.92474 45.6257C5.19015 45.2497 5.19015 44.7466 4.92474 44.3706C3.12588 41.829 2.17669 38.8395 2.17669 35.7228C2.17669 32.6098 3.12588 29.6203 4.9229 27.0769C5.1883 26.7009 5.1883 26.1977 4.9229 25.8217C3.12588 23.2801 2.17485 20.2906 2.17485 17.1758C2.17485 8.90398 8.90582 2.17485 17.1776 2.17485C18.4973 2.17485 19.8077 2.34626 21.0702 2.68538V2.68723ZM13.7937 85.4218C14.8922 85.7148 16.0294 85.8641 17.1758 85.8641C20.6574 85.8641 23.9325 84.5076 26.3949 82.0452C28.8573 79.5829 30.2138 76.3077 30.2138 72.8242C30.2138 69.3408 28.8149 65.9919 26.3396 63.5498C28.8149 61.1077 30.2138 57.7883 30.2138 54.2754C30.2138 50.7624 28.8149 47.4449 26.3396 45.0009C28.8149 42.5588 30.2138 39.2394 30.2138 35.7265C30.2138 32.2136 28.8149 28.896 26.3396 26.452C28.8149 24.01 30.2138 20.6905 30.2138 17.1776C30.2138 11.2853 26.2419 6.10616 20.556 4.58193C19.4575 4.28887 18.3203 4.13774 17.1739 4.13774C13.6905 4.13774 10.4172 5.49426 7.95294 7.95663C5.49057 10.4208 4.13405 13.6942 4.13405 17.1776C4.13405 20.6611 5.53296 24.01 8.00823 26.452C5.53296 28.8941 4.13405 32.2117 4.13405 35.7265C4.13405 39.2394 5.53296 42.5588 8.00823 45.0009C5.53296 47.4449 4.13405 50.7643 4.13405 54.2772C4.13405 57.7901 5.53296 61.1077 8.00823 63.5498C5.53296 65.9937 4.13405 69.3131 4.13405 72.8242C4.13405 78.7166 8.10407 83.8975 13.79 85.4199L13.7937 85.4218ZM20.0233 6.58168C24.8043 7.86263 28.1458 12.2197 28.1458 17.1776C28.1458 20.4694 26.6861 23.5584 24.139 25.654C23.9012 25.8494 23.7611 26.1443 23.7611 26.452C23.7611 26.7617 23.8994 27.0547 24.139 27.252C26.6843 29.3457 28.144 32.4347 28.1458 35.7265C28.1458 39.0182 26.6861 42.1073 24.139 44.201C23.8994 44.3982 23.7611 44.6913 23.7611 45.0009C23.7611 45.3106 23.8994 45.6036 24.139 45.8008C26.6843 47.8946 28.144 50.9836 28.144 54.2754C28.144 57.569 26.6843 60.6561 24.139 62.7499C23.8994 62.9471 23.7611 63.2402 23.7611 63.5498C23.7611 63.8594 23.8994 64.1525 24.139 64.3497C26.6843 66.4435 28.144 69.5325 28.144 72.8261C28.144 75.7547 27.0031 78.5102 24.9315 80.5818C22.8599 82.6534 20.1063 83.7943 17.1758 83.7943C16.21 83.7943 15.2534 83.669 14.33 83.422C9.54906 82.1411 6.20753 77.7822 6.20753 72.8261C6.20753 69.5343 7.66726 66.4453 10.2144 64.3497C10.454 64.1543 10.5922 63.8594 10.5922 63.5498C10.5922 63.2402 10.454 62.9471 10.2163 62.7517C7.6691 60.6561 6.20937 57.569 6.20937 54.2772C6.20937 50.9854 7.6691 47.8964 10.2163 45.8008C10.4559 45.6036 10.5941 45.3106 10.5941 45.0009C10.5941 44.6913 10.4559 44.3982 10.2163 44.2029C7.67095 42.1091 6.20937 39.0201 6.20937 35.7265C6.20937 32.4329 7.67095 29.3475 10.2163 27.2538C10.4559 27.0566 10.5941 26.7635 10.5941 26.4539C10.5941 26.1443 10.4559 25.8512 10.2163 25.654C7.67095 23.5584 6.21122 20.4712 6.20937 17.1776C6.20937 14.2489 7.35025 11.4935 9.42188 9.42373C11.4935 7.35209 14.2489 6.21122 17.1776 6.21122C18.1434 6.21122 19.1 6.33655 20.0233 6.58352V6.58168Z" fill="#FFC425"/>
<path d="M67.0572 11.2705C67.0572 4.74966 62.3924 0.886536 55.1195 0.886536H37.7281V34.3773H47.2108V23.2395C50.6482 23.4755 56.4263 25.9397 56.4263 34.3995H66.8729C66.8729 30.0995 65.3892 24.7619 61.1925 20.9799C64.8824 19.2105 67.0591 15.7197 67.0591 11.2705H67.0572ZM52.2996 16.6487H47.15V8.12804H52.1779C56.3783 8.12804 57.3681 11.2779 57.3699 12.3413C57.3699 16.3243 52.9723 16.6487 52.2996 16.6487ZM80.0105 34.6206H70.5241V1.12982H80.0123V34.6206H80.0105ZM108.374 8.79155H100.476V34.6188H90.9916V8.79155H83.094V1.12798H108.376V8.79155H108.374ZM139.92 7.35394L123.832 26.8686H138.252V34.5875H113.604L110.525 28.3615L126.39 8.92794L112.112 8.93716V1.12798H136.759L139.883 6.93556L140.11 7.11987L140.034 7.21387L140.108 7.35579H139.918L139.92 7.35394ZM23.4368 14.472C23.4368 11.7018 21.4554 10.0633 18.3683 10.0633H11.617V24.2827H15.6423V19.5552C17.1021 19.6547 18.9212 20.7016 18.9212 24.2938H23.3575C23.3575 22.4673 22.7272 20.2021 20.9449 18.595C22.5134 17.8448 23.4368 16.363 23.4368 14.4738V14.472ZM17.1703 16.7537H15.6184V13.1357H17.1205C18.9028 13.1357 19.323 14.4738 19.323 14.9254C19.323 16.6173 17.4578 16.7537 17.1703 16.7537ZM19.0484 42.8353H15.0231V28.6177H19.0484V42.8353ZM22.67 50.4196H19.3175V61.3842H15.2921V50.4196H11.9396V47.1666H22.6719V50.4196H22.67ZM23.6635 68.364L16.833 76.6487H22.9557V79.9257H12.4925L11.1839 77.2827L17.9222 69.0312L11.8585 69.0348V65.7191H22.3217L23.6487 68.1852L23.7446 68.2626L23.7132 68.3013L23.7446 68.3621H23.6635V68.364ZM128.642 52.0526V48.4401L138.037 51.7043V55.4808L128.642 58.8315V55.2172L129.814 54.9075V52.3272L128.642 52.0526ZM132.045 54.3085L133.702 53.9104C134.102 53.8109 134.513 53.7482 134.911 53.6856V53.5602L132.045 52.9373V54.3085ZM138.038 59.4913V62.7683L132.83 65.8334V65.9329C133.615 65.7947 134.424 65.6472 135.222 65.6472H138.038V68.9114H128.642V65.6472L133.576 62.6448V62.5435C132.927 62.6559 132.317 62.7536 131.694 62.7536H128.642V59.4895H138.038V59.4913ZM138.037 70.4338V73.9098C138.037 77.0615 136.654 79.4796 133.202 79.4796C130.412 79.4796 128.64 77.5112 128.64 74.7576V70.4338H138.037ZM131.459 73.8472V74.0591C131.459 75.1945 131.982 76.0644 133.217 76.0644C134.538 76.0644 135.099 75.305 135.099 74.0591V73.8472H131.46H131.459ZM49.6068 48.5931L49.1258 52.4267H45.9299V62.3444H42.0778V52.4267H38.7658V48.5931H49.6087H49.6068ZM62.2873 62.3426H58.4352V57.2004H55.1029V62.3426H51.2509V48.5913H55.1029V53.7519H58.4352V48.5894H62.2855V62.3407L62.2873 62.3426ZM74.0149 58.5311L73.4749 62.3444H64.5783V48.5931H73.4564V52.4267H68.4303V53.7556H73.4583L72.957 57.2022H68.4303V58.5311H74.0167H74.0149ZM88.4297 54.5832V62.3444H84.7712V59.5724H79.7248V62.3463H76.046V54.585C76.0073 52.8783 76.6007 51.4167 77.8264 50.204C79.0521 48.9912 80.5265 48.3848 82.2461 48.3848C83.9676 48.3848 85.4402 48.9912 86.6659 50.204C87.8915 51.4167 88.4795 52.8783 88.4279 54.585L88.4297 54.5832ZM84.7712 54.5813C84.8099 53.8883 84.5758 53.2948 84.0671 52.8009C83.5603 52.3069 82.9539 52.06 82.2461 52.06C81.5402 52.06 80.9338 52.3069 80.4252 52.8009C79.9183 53.2967 79.6842 53.8902 79.7229 54.5832V56.124H84.7693V54.5832L84.7712 54.5813ZM100.331 48.5931L99.8477 52.4267H96.6499V62.3463H92.7978V52.4267H89.4858V48.5931H100.329H100.331ZM125.203 58.5016L124.663 62.3149H115.765V48.5636H124.643V52.3973H119.617V53.7261H124.643L124.141 57.1727H119.615V58.5016H125.199H125.203ZM101.938 48.5931H107.426C109.07 48.5931 110.473 49.17 111.636 50.3256C112.797 51.4812 113.378 52.8783 113.378 54.5205C113.378 56.3175 112.79 57.5561 111.612 58.2362L114.268 61.2054L111.124 63.3268L105.731 57.3552V62.3426H101.938V48.5913V48.5931ZM109.66 54.5242C109.66 53.9067 109.443 53.3852 109.008 52.9539C108.573 52.5244 108.049 52.3088 107.436 52.3088H105.731V56.7562H107.425C108.042 56.7451 108.567 56.5221 109.004 56.0927C109.441 55.6632 109.66 55.1398 109.658 54.5223L109.66 54.5242ZM52.6829 65.5311C55.2964 65.5311 57.064 66.508 57.9855 68.4635C58.3634 69.2708 58.5532 70.2421 58.5532 71.3774V79.2677H54.7878V71.3627C54.7878 70.7692 54.5795 70.266 54.1629 69.855C53.7464 69.444 53.2488 69.2394 52.6682 69.2394C52.0747 69.2394 51.5716 69.444 51.155 69.855C50.7385 70.266 50.5302 70.7674 50.5302 71.3608V79.2658H46.8035V71.3608C46.8035 70.7674 46.5934 70.2642 46.175 69.855C45.7566 69.444 45.2498 69.2394 44.6544 69.2394C44.0591 69.2394 43.5707 69.444 43.1523 69.855C42.7339 70.266 42.5257 70.7673 42.5257 71.3627V79.2677H38.7602V71.3793C38.7602 69.3979 39.3979 67.8848 40.6734 66.8379C41.735 65.9679 43.0602 65.5311 44.6508 65.5311C46.2413 65.5311 47.5407 66.0619 48.665 67.1217C49.7893 66.0619 51.1274 65.5311 52.6811 65.5311H52.6829ZM71.9525 73.7624C71.9525 75.3769 71.3811 76.7556 70.2402 77.8964C69.0975 79.0391 67.7207 79.6105 66.1062 79.6105C64.4916 79.6105 63.1167 79.0391 61.9813 77.8983C60.846 76.7574 60.2783 75.3788 60.2783 73.7642V65.7799H64.0051V73.7808C64.0051 74.3614 64.2115 74.8609 64.628 75.2792C65.0409 75.6958 65.5385 75.904 66.1154 75.904C66.7052 75.904 67.2047 75.6958 67.6138 75.2792C68.0212 74.8627 68.2257 74.3632 68.2257 73.7808V65.7799H71.9525V73.7642V73.7624ZM90.7686 75.5207L90.2378 79.2677H81.496V65.7578H90.2193V69.5233H85.2799V70.8282H90.2193L89.7272 74.2158H85.2817V75.5207H90.7686ZM103.958 73.7624C103.958 75.3769 103.386 76.7556 102.246 77.8964C101.103 79.0391 99.726 79.6105 98.1115 79.6087C96.4969 79.6087 95.122 79.0373 93.9866 77.8964C92.8513 76.7556 92.2836 75.3769 92.2836 73.7624V65.7763H96.0103V73.7771C96.0103 74.3577 96.2168 74.8572 96.6315 75.2756C97.0462 75.6939 97.5419 75.9004 98.1188 75.9004C98.7086 75.9004 99.2081 75.6921 99.6154 75.2756C100.025 74.859 100.229 74.3595 100.229 73.7771V65.7763H103.956V73.7605L103.958 73.7624ZM119.488 65.5311C122.101 65.5311 123.869 66.508 124.79 68.4635C125.168 69.2708 125.358 70.2421 125.358 71.3774V79.2658H121.594V71.3608C121.594 70.7674 121.386 70.2642 120.969 69.855C120.553 69.444 120.055 69.2394 119.475 69.2394C118.881 69.2394 118.378 69.444 117.962 69.855C117.545 70.266 117.337 70.7673 117.337 71.3627V79.2677H113.61V71.3627C113.61 70.7692 113.4 70.266 112.983 69.855C112.565 69.444 112.058 69.2394 111.463 69.2394C110.88 69.2394 110.379 69.444 109.961 69.855C109.542 70.266 109.334 70.7674 109.334 71.3608V79.2658H105.569V71.3756C105.569 69.3942 106.206 67.8811 107.482 66.8342C108.542 65.9642 109.869 65.5274 111.459 65.5274C113.05 65.5274 114.351 66.0582 115.473 67.118C116.598 66.0582 117.936 65.5274 119.488 65.5274V65.5311ZM79.0115 79.2677H73.3864C74.0444 78.9802 75.5336 78.1065 75.9133 76.8588C76.1805 75.9778 75.8764 74.8977 75.012 73.6463C73.438 71.3719 72.9662 69.1712 73.6057 67.1088C73.7569 66.6241 73.9633 66.1836 74.2029 65.7781H79.8833H79.8943L79.9017 65.7984C79.3027 66.0343 77.6605 66.9374 77.2606 68.2571C76.9933 69.1362 77.2974 70.2181 78.1618 71.4696C79.7358 73.7439 80.2077 75.9428 79.5681 78.007C79.4262 78.4641 79.2345 78.8825 79.0134 79.2695L79.0115 79.2677Z" fill="#E31B23"/>
</g>
<defs>
<clipPath id="clip0_6508_2137">
<rect width="140.11" height="90" fill="white"/>
</clipPath>
</defs>
</svg>
