<?xml version="1.0" encoding="UTF-8"?><svg id="Logo" xmlns="http://www.w3.org/2000/svg" viewBox="0 0 300 300"><defs><style>.cls-1{fill:#ffd316;}</style></defs><g id="New_Logo"><path class="cls-1" d="m10.48,228.96c3.56,21.7,57.14,62.21,139.52,61.04v-.1c69.03,2.04,125.86-27.53,139.94-60.92h0v-30.65c.14-1.87,0-12.73,0-14.62V37.81c0-5.34-1.86-10.32-5.02-14.56-4.51-6.04-11.72-10.53-20.25-12.35-2.69-.57-5.49-.91-8.39-.91H43.66c-2.51,0-4.95.24-7.31.68-8.55,1.57-15.88,5.8-20.62,11.61-3.62,4.43-5.73,9.78-5.73,15.53m190.63-7.78c.12,0-.54-.09-.63-.03-13.73,9.28-22.19,20-50,20-26.04,0-36.23-10.5-49.95-19.78-.09-.06-.04-.19.08-.19h100.5Zm-133.61-.03s.07-.01.1.01c18.92,21.16,48.67,34.99,82.88,34.99s61.08-13.84,80-35c.02-.03,4.06-.03,4.09-.03l15.91.03c.1,0,4.01.06,3.96.13-21.04,29.07-60.06,49.87-103.96,49.87S68.2,59.2,47.16,30.13c-.05-.07.74-.13.84-.13h19.02Zm2.98,172c-.06-.05,4.47-8,4.47-8,24.65-4.09,44.53-22.34,44.53-44l-.12-54.1c0-.07.04.09.12.1,10.16,1.88,20.73,3,31.56,3s20.75-1.26,30.63-3.03c.08-.01-.18-.03-.18.03v54c0,21.35,19.84,39.58,44,44,.14.03,5.15,8,5,8m-153.24-29.27v-90.65c0-.08.1-.13.18-.09,5.66,2.78,11.56,5.26,17.68,7.39.05.02.07.05.07.09v60.53c0,10.14-7.33,18.85-17.76,22.73-.08.03-.19.08-.19,0Zm128.74-22.73v-59.94s.03-.05.08-.06c6.12-2.09,12.02-4.84,17.68-7.57.08-.04.18,0,.18.09v90.22c0,.08-.1.13-.19.1-10.43-3.88-17.76-12.7-17.76-22.83Zm-168.23,52.93c-.83.4-1.71.77-2.63,1.1V50.86c0-.1.15-.14.22-.06,5.29,5.82,11.22,11.23,17.68,16.16.02.02.04.05.04.07v116.94s0,.01,0,.02c-.7,2.8-4.08,13.57-15.31,18.94Zm3.05,18.96h217.34c3.93,0,1.25-.04,7.89.09v1.21s0,0-.02.03c-19.38,28.97-71.51,48.18-115.57,48.18-44.02,0-95.91-19.27-115.31-48.2,0-.01-.03-1.21-.02-1.21m230.91-33.43v15.48c-1.01-.36-1.95-.78-2.86-1.22-10.86-5.32-14.28-15.72-15.08-18.84,0,0,0-.01,0-.02v-116.21s.01-.06.04-.07c6.46-4.85,12.37-10.18,17.68-15.91.07-.08.22-.04.22.06v136.73Z"/><path class="cls-1" d="m216.75,231.67c-.56-.3-1.13-.57-1.74-.77-.61-.23-1.25-.37-1.9-.5-1.29-.2-2.67-.2-3.96,0-.65.13-1.29.27-1.9.5-.61.2-1.17.47-1.74.77-.52.3-1.05.64-1.53,1.04-1.86,1.54-2.95,3.7-2.95,5.91s1.09,4.34,2.95,5.87c1.9,1.57,4.53,2.47,7.15,2.47.65,0,1.33-.07,1.98-.17.64-.1,1.29-.27,1.9-.5.6-.2,1.17-.47,1.74-.77.52-.3,1.05-.64,1.53-1.04,1.86-1.54,2.95-3.7,2.95-5.87s-1.09-4.37-2.95-5.91c-.49-.4-1.01-.74-1.53-1.04Z"/><path class="cls-1" d="m169.02,243.62h-.04c-5.45.97-8.88,5.41-7.72,9.92,1.05,3.9,5.21,6.57,9.86,6.57.73,0,1.46-.07,2.18-.2,5.45-.97,8.89-5.41,7.72-9.91-1.17-4.5-6.58-7.34-12-6.38Z"/><path class="cls-1" d="m132.07,243.58c-5.45-1-10.83,1.8-12.08,6.31-1.21,4.51,2.23,8.95,7.68,9.98.73.13,1.46.2,2.18.2,4.64,0,8.81-2.64,9.86-6.51,1.22-4.51-2.18-8.98-7.63-9.98Z"/><path class="cls-1" d="m94.18,231.67c-.56-.3-1.13-.57-1.74-.77-.61-.23-1.25-.37-1.9-.5-1.29-.2-2.66-.2-3.96,0-.65.13-1.25.27-1.9.5-.61.2-1.17.47-1.74.77-.52.3-1.05.64-1.53,1.04-1.86,1.54-2.95,3.7-2.95,5.91s1.09,4.34,2.95,5.87c1.9,1.57,4.53,2.47,7.15,2.47.64,0,1.33-.07,1.98-.17.65-.1,1.29-.27,1.9-.5.6-.2,1.17-.47,1.74-.77.56-.3,1.05-.64,1.53-1.04,1.86-1.54,2.95-3.7,2.95-5.87s-1.09-4.37-2.95-5.91c-.49-.4-.97-.74-1.53-1.04Z"/></g></svg>