<?xml version="1.0" standalone="no"?>
<!DOCTYPE svg PUBLIC "-//W3C//DTD SVG 20010904//EN"
 "http://www.w3.org/TR/2001/REC-SVG-20010904/DTD/svg10.dtd">
<svg version="1.0" xmlns="http://www.w3.org/2000/svg"
 width="1200.000000pt" height="1200.000000pt" viewBox="0 0 1200.000000 1200.000000"
 preserveAspectRatio="xMidYMid meet">
<metadata>
Created by potrace 1.14, written by Peter Selinger 2001-2017
</metadata>
<g transform="translate(0.000000,1200.000000) scale(0.100000,-0.100000)"
fill="#000000" stroke="none">
<path d="M2557 11683 c-4 -4 -58 -7 -120 -8 -156 -2 -257 -18 -386 -61 -55
-18 -144 -56 -151 -63 -3 -4 -18 -13 -35 -21 -16 -8 -32 -17 -35 -20 -3 -3
-30 -21 -60 -41 -216 -143 -408 -435 -456 -693 -3 -17 -8 -42 -11 -56 -9 -40
-9 -3010 0 -3010 5 0 5 -5 1 -11 -5 -9 -7 -522 -3 -719 0 -8 0 -220 0 -470 0
-250 1 -1193 3 -2095 4 -1491 5 -1646 21 -1704 22 -85 54 -171 95 -251 40 -80
83 -156 96 -171 8 -8 14 -19 14 -23 0 -4 6 -14 13 -21 29 -33 37 -45 32 -45
-3 0 15 -26 40 -57 25 -32 56 -71 68 -86 42 -55 209 -239 240 -266 10 -9 45
-41 76 -71 69 -65 176 -159 205 -179 12 -8 23 -18 26 -21 6 -8 166 -129 244
-185 100 -71 380 -244 388 -239 4 3 8 1 8 -4 0 -5 28 -24 63 -42 133 -68 377
-190 381 -190 3 0 33 -13 68 -29 35 -16 97 -43 138 -59 41 -16 84 -33 95 -37
11 -5 22 -9 25 -10 3 -1 19 -7 35 -14 17 -7 37 -14 45 -17 14 -3 305 -99 340
-112 8 -3 24 -7 35 -9 11 -2 31 -7 45 -12 36 -13 102 -31 125 -35 11 -2 27 -6
35 -9 8 -3 38 -10 65 -16 28 -7 61 -14 75 -17 14 -3 66 -14 115 -24 50 -11
101 -21 115 -24 25 -6 89 -16 125 -21 11 -1 20 -3 20 -5 0 -2 29 -6 170 -24
17 -2 48 -6 71 -10 22 -4 61 -9 85 -11 24 -2 76 -6 114 -10 130 -12 150 -14
305 -21 201 -9 852 -10 1000 -1 145 9 297 22 370 32 19 2 58 7 85 10 28 4 57
8 65 10 8 2 40 7 70 10 30 4 89 13 130 22 41 8 86 16 100 17 35 5 196 41 315
71 55 14 109 27 120 30 62 15 402 123 420 134 6 3 16 6 22 7 40 6 399 159 526
224 31 17 64 30 72 30 8 0 15 4 15 9 0 5 12 14 27 20 119 45 607 357 730 466
6 5 26 21 45 35 112 85 401 362 489 470 19 23 40 49 47 56 14 14 156 205 179
240 65 99 91 142 146 247 20 37 33 67 29 67 -4 0 -1 4 5 8 7 5 35 62 61 128
l49 119 -2 3940 c-1 2167 -5 3958 -9 3980 -52 283 -178 507 -388 692 -50 44
-133 103 -146 103 -6 0 -12 4 -14 8 -4 10 -170 89 -203 97 -5 2 -35 10 -66 19
-58 17 -63 18 -139 31 -34 6 -327 16 -427 15 -13 0 -212 0 -235 0 -7 0 -172
-1 -366 -3 -193 -1 -352 2 -352 6 0 5 -5 5 -12 1 -17 -11 -228 -11 -228 0 0 5
-5 5 -12 0 -7 -5 -166 -8 -353 -7 -395 3 -347 3 -480 3 -58 0 -111 0 -117 0
-7 0 -172 -1 -366 -3 -193 -1 -352 2 -352 6 0 5 -5 5 -12 1 -17 -11 -228 -11
-228 0 0 5 -5 5 -12 0 -7 -5 -166 -8 -353 -7 -395 3 -347 3 -480 3 -58 0 -111
0 -117 0 -7 0 -172 -1 -366 -3 -193 -1 -352 2 -352 6 0 5 -5 5 -12 1 -17 -11
-228 -11 -228 0 0 5 -5 5 -12 0 -7 -5 -166 -8 -353 -7 -395 3 -347 3 -480 3
-58 0 -111 0 -117 0 -7 0 -170 -1 -363 -3 -192 -1 -353 1 -356 6 -3 4 -9 4
-12 0z m691 -872 c23 -31 54 -70 69 -87 16 -18 46 -53 68 -80 44 -53 301 -314
309 -314 3 0 19 -12 35 -27 37 -35 97 -86 136 -115 17 -12 32 -25 35 -28 3 -3
37 -28 75 -55 39 -27 76 -55 83 -62 7 -7 19 -13 27 -13 7 0 15 -3 17 -7 4 -10
65 -53 74 -53 3 0 18 -8 32 -19 63 -45 326 -180 437 -225 39 -16 84 -34 100
-41 17 -7 46 -18 65 -25 19 -7 44 -16 55 -21 11 -4 57 -19 103 -33 225 -70
476 -121 692 -141 36 -4 81 -8 100 -11 47 -6 424 -6 480 0 25 3 77 8 115 11
39 3 79 8 90 10 11 2 40 7 65 10 39 4 82 12 229 41 38 8 130 31 196 49 33 9
67 18 75 19 8 0 17 3 20 6 8 8 123 45 138 43 6 0 12 3 12 7 0 4 20 13 45 20
25 7 48 17 51 22 3 4 10 6 15 3 5 -4 9 -1 9 6 0 7 3 10 6 6 4 -3 19 0 34 8 15
8 30 11 34 8 3 -4 6 -1 6 5 0 7 5 12 10 12 34 0 484 244 501 271 3 6 8 9 10 8
10 -8 261 180 389 291 106 92 272 261 365 371 32 38 108 134 129 161 l18 25
334 0 c184 0 334 -2 334 -4 0 -22 -226 -347 -329 -473 -135 -164 -399 -440
-422 -440 -6 0 -7 -4 -4 -10 3 -5 2 -10 -4 -10 -5 0 -22 -13 -38 -28 -77 -76
-345 -279 -478 -363 -39 -24 -71 -47 -73 -51 -2 -4 -8 -8 -13 -8 -6 0 -34 -15
-63 -34 -29 -18 -62 -37 -74 -40 -12 -4 -22 -12 -22 -18 0 -6 -3 -8 -6 -5 -4
4 -19 -2 -33 -11 -14 -10 -45 -26 -68 -37 -24 -10 -43 -21 -43 -25 0 -4 -6 -7
-12 -7 -7 -1 -69 -27 -138 -58 -189 -86 -205 -94 -236 -101 -16 -4 -35 -11
-41 -17 -7 -5 -13 -6 -13 -2 0 4 -6 3 -12 -3 -7 -6 -17 -11 -23 -12 -15 -4
-37 -11 -70 -23 -16 -6 -34 -12 -40 -12 -9 0 -73 -20 -105 -32 -8 -4 -18 -6
-21 -5 -4 1 -22 -3 -40 -9 -39 -12 -37 -11 -149 -37 -47 -11 -98 -23 -115 -25
-16 -3 -55 -10 -85 -16 -61 -11 -128 -22 -177 -27 -18 -2 -48 -6 -65 -8 -226
-28 -699 -28 -898 -1 -19 3 -55 7 -80 10 -25 3 -56 7 -70 10 -14 3 -43 7 -65
10 -22 3 -71 12 -110 19 -38 8 -73 12 -77 9 -5 -2 -8 0 -8 5 0 5 -17 12 -37
15 -42 7 -78 15 -78 17 0 1 -9 3 -20 5 -11 2 -36 7 -55 10 -19 4 -37 6 -39 5
-2 -1 -7 2 -10 7 -3 5 -31 15 -61 22 -30 8 -59 16 -65 20 -5 3 -16 7 -22 8 -7
2 -19 4 -25 6 -7 1 -17 5 -23 8 -5 4 -31 12 -57 20 -27 7 -48 17 -48 21 0 4
-11 8 -24 8 -14 0 -28 5 -31 10 -3 6 -13 10 -20 10 -8 0 -44 14 -80 30 -36 17
-68 30 -71 30 -3 0 -38 16 -77 36 -40 20 -80 38 -90 39 -9 2 -24 11 -33 19
-14 14 -20 17 -39 16 -3 -1 -13 6 -21 15 -9 8 -22 15 -30 15 -8 0 -14 4 -14 8
0 4 -12 13 -27 19 -40 17 -135 72 -155 90 -10 9 -18 12 -18 7 0 -5 -4 -4 -8 2
-4 5 -25 21 -47 34 -22 13 -44 28 -50 32 -5 5 -48 35 -95 68 -47 32 -94 66
-105 75 -11 9 -33 26 -49 38 -108 81 -228 189 -381 342 -147 147 -172 176
-282 312 -47 60 -91 111 -97 115 -7 5 -7 8 -1 8 7 0 7 3 0 8 -17 12 -65 80
-65 91 0 6 -4 11 -9 11 -7 0 -67 85 -79 113 -3 5 -19 32 -38 60 -19 28 -34 55
-34 58 0 4 150 7 333 7 l333 0 42 -57z m4409 22 c-20 -18 -93 -71 -164 -118
-70 -47 -133 -88 -138 -93 -55 -39 -408 -202 -438 -202 -8 0 -17 -3 -21 -7 -4
-5 -11 -8 -14 -8 -4 -1 -43 -13 -87 -27 -44 -15 -92 -29 -107 -32 -15 -2 -31
-7 -36 -9 -4 -3 -27 -8 -51 -12 -24 -3 -53 -10 -65 -14 -11 -5 -24 -9 -29 -9
-4 0 -24 -3 -45 -6 -99 -15 -120 -18 -157 -22 -143 -16 -399 -22 -428 -11 -9
3 -19 2 -22 -4 -4 -5 -12 -6 -18 -2 -7 4 -30 8 -52 10 -37 1 -79 6 -165 19
-19 3 -51 7 -70 9 -19 2 -37 5 -40 6 -3 1 -9 3 -15 4 -5 0 -33 7 -61 14 -29 7
-58 14 -65 15 -8 1 -34 8 -59 15 -25 7 -56 15 -70 18 -13 2 -28 10 -32 16 -4
7 -8 9 -8 5 0 -11 -202 62 -294 106 -42 20 -79 37 -83 38 -5 0 -24 11 -43 22
-19 12 -54 30 -77 41 -24 11 -43 23 -43 28 0 4 -7 7 -15 7 -8 0 -15 5 -15 10
0 6 -5 10 -11 10 -19 0 -298 197 -299 211 0 3 759 6 1686 6 l1686 0 -35 -34z
m-5514 -833 c9 -11 15 -20 13 -20 -2 0 9 -15 25 -32 16 -18 71 -82 121 -143
116 -137 165 -191 300 -324 96 -96 144 -161 118 -161 -6 0 -6 -9 0 -25 6 -15
6 -26 0 -30 -7 -4 -6 -13 0 -26 6 -10 7 -19 3 -19 -4 0 -8 -11 -8 -25 0 -14 2
-25 5 -25 7 0 4 -66 -5 -79 -3 -6 -1 -11 5 -11 8 0 8 -6 0 -20 -8 -14 -8 -20
0 -20 8 0 8 -6 0 -20 -8 -14 -8 -20 0 -20 6 0 8 -5 4 -11 -10 -17 -11 -51 -2
-76 4 -14 4 -23 -2 -23 -6 0 -6 -9 0 -25 5 -14 6 -25 2 -25 -4 0 -7 -16 -7
-35 0 -19 4 -35 8 -35 4 0 3 -9 -3 -19 -7 -14 -7 -22 1 -27 7 -4 7 -10 1 -16
-7 -7 -7 -19 -1 -37 11 -28 11 -28 -2 -53 -7 -12 -6 -18 1 -18 8 0 8 -6 0 -20
-8 -14 -8 -20 0 -20 8 0 8 -6 0 -20 -8 -14 -8 -20 0 -20 6 0 8 -5 4 -11 -10
-17 -11 -52 -2 -71 5 -9 4 -19 -2 -23 -6 -4 -6 -15 0 -30 6 -16 6 -25 0 -25
-6 0 -6 -9 0 -25 6 -15 6 -26 0 -30 -7 -4 -6 -13 0 -26 6 -10 7 -19 3 -19 -4
0 -8 -11 -8 -25 0 -14 2 -25 5 -25 7 0 4 -66 -5 -79 -3 -6 -1 -11 5 -11 8 0 8
-6 0 -20 -8 -14 -8 -20 0 -20 8 0 8 -6 0 -20 -8 -14 -8 -20 0 -20 6 0 8 -5 4
-11 -10 -17 -11 -51 -2 -76 4 -14 4 -23 -2 -23 -6 0 -6 -9 0 -25 5 -14 6 -25
2 -25 -4 0 -7 -16 -7 -35 0 -19 4 -35 8 -35 4 0 3 -9 -3 -19 -7 -14 -7 -22 1
-27 7 -4 7 -10 1 -16 -7 -7 -7 -19 -1 -37 11 -28 11 -28 -2 -53 -7 -12 -6 -18
1 -18 8 0 8 -6 0 -20 -8 -14 -8 -20 0 -20 8 0 8 -6 0 -20 -8 -14 -8 -20 0 -20
6 0 8 -5 4 -11 -10 -17 -11 -52 -2 -71 5 -9 4 -19 -2 -23 -6 -4 -6 -15 0 -30
6 -16 6 -25 0 -25 -6 0 -6 -9 0 -25 6 -15 6 -26 0 -30 -7 -4 -6 -13 0 -26 6
-10 7 -19 3 -19 -4 0 -8 -11 -8 -25 0 -14 2 -25 5 -25 7 0 4 -66 -5 -79 -3 -6
-1 -11 5 -11 8 0 8 -6 0 -20 -8 -14 -8 -20 0 -20 8 0 8 -6 0 -20 -8 -14 -8
-20 0 -20 6 0 8 -5 4 -11 -10 -17 -11 -51 -2 -76 4 -14 4 -23 -2 -23 -6 0 -6
-9 0 -25 5 -14 6 -25 2 -25 -4 0 -7 -16 -7 -35 0 -19 4 -35 8 -35 4 0 3 -9 -3
-19 -7 -14 -7 -22 1 -27 7 -4 7 -10 1 -16 -6 -6 -7 -19 -2 -32 10 -28 10 -37
-1 -58 -7 -12 -6 -18 1 -18 8 0 8 -6 0 -20 -8 -14 -8 -20 0 -20 8 0 8 -6 0
-20 -8 -14 -8 -20 0 -20 6 0 8 -5 4 -11 -10 -17 -11 -52 -2 -71 5 -9 4 -19 -2
-23 -6 -4 -6 -15 0 -30 6 -16 6 -25 0 -25 -6 0 -6 -9 0 -25 6 -15 6 -26 0 -30
-7 -4 -6 -13 0 -26 6 -10 7 -19 3 -19 -4 0 -8 -11 -8 -25 0 -14 2 -25 5 -25 7
0 4 -66 -5 -79 -3 -6 -1 -11 5 -11 8 0 8 -6 0 -20 -8 -14 -8 -20 0 -20 8 0 8
-6 0 -20 -8 -14 -8 -20 0 -20 6 0 8 -5 4 -11 -10 -17 -11 -51 -2 -76 4 -14 4
-23 -2 -23 -6 0 -6 -9 0 -25 5 -14 6 -25 2 -25 -4 0 -7 -16 -7 -35 0 -19 4
-35 8 -35 4 0 3 -9 -3 -19 -7 -14 -7 -22 1 -27 7 -4 7 -10 1 -16 -7 -7 -7 -19
-1 -37 11 -28 11 -28 -2 -53 -7 -12 -6 -18 1 -18 8 0 8 -6 0 -20 -8 -14 -8
-20 0 -20 8 0 8 -6 0 -20 -8 -14 -8 -20 0 -20 6 0 8 -5 4 -11 -10 -17 -11 -52
-2 -71 5 -9 4 -19 -2 -23 -6 -4 -6 -15 0 -30 6 -16 6 -25 0 -25 -6 0 -6 -9 0
-25 6 -15 6 -26 0 -30 -7 -4 -6 -13 0 -26 6 -10 7 -19 3 -19 -4 0 -8 -11 -8
-25 0 -14 2 -25 5 -25 7 0 4 -66 -5 -79 -3 -6 -1 -11 5 -11 8 0 8 -6 0 -20 -8
-14 -8 -20 0 -20 8 0 8 -6 0 -20 -8 -14 -8 -20 0 -20 6 0 8 -5 4 -11 -10 -17
-11 -51 -2 -76 4 -14 4 -23 -2 -23 -6 0 -6 -9 0 -25 5 -14 6 -25 2 -25 -4 0
-7 -16 -7 -35 0 -19 4 -35 8 -35 4 0 3 -9 -3 -19 -7 -14 -7 -22 1 -27 7 -4 7
-10 1 -16 -6 -6 -7 -19 -2 -32 10 -28 10 -37 -1 -58 -7 -12 -6 -18 1 -18 8 0
8 -6 0 -20 -8 -14 -8 -20 0 -20 8 0 8 -6 0 -20 -8 -14 -8 -20 0 -20 6 0 8 -5
5 -10 -4 -6 -8 -30 -10 -54 -1 -23 -8 -52 -14 -64 -6 -12 -10 -22 -7 -22 9 0
-46 -145 -84 -222 -57 -113 -111 -196 -167 -255 -13 -13 -23 -28 -23 -33 0 -6
-3 -10 -7 -10 -5 0 -30 -21 -56 -45 -53 -49 -130 -105 -145 -105 -6 0 -12 -3
-14 -7 -1 -5 -17 -16 -35 -25 -48 -25 -52 -10 -43 142 0 14 -1 40 -3 58 -2 18
0 35 5 38 4 3 4 15 0 27 -9 28 -8 150 2 165 4 7 3 12 -2 12 -9 0 -7 83 3 100
3 5 1 10 -6 10 -8 0 -9 3 0 13 6 8 8 17 4 20 -9 10 -10 78 -1 105 4 12 4 22 0
22 -9 0 -8 77 0 86 4 3 3 18 -1 32 -8 31 -7 64 3 81 4 6 4 11 -1 11 -10 0 -8
163 1 179 4 6 3 11 -1 11 -9 0 -10 77 0 86 3 3 3 16 -1 28 -9 27 -8 149 2 164
4 7 3 12 -2 12 -9 0 -7 83 3 100 3 5 1 10 -6 10 -8 0 -9 3 0 13 6 8 8 17 4 20
-9 10 -10 78 -1 105 4 12 4 22 0 22 -9 0 -8 77 1 86 3 3 2 16 -2 28 -8 23 -7
86 2 110 4 9 3 16 -1 16 -6 0 -8 75 -2 90 1 3 1 10 0 15 -6 26 -5 173 2 193 4
12 4 22 0 22 -6 0 -8 75 -2 90 1 3 1 10 0 15 -6 28 -5 93 2 113 5 14 4 22 -3
22 -8 0 -8 4 0 13 6 8 8 17 4 20 -9 10 -10 78 -1 105 4 12 4 22 0 22 -9 0 -8
77 0 86 4 3 3 18 -1 32 -8 31 -7 64 3 81 4 6 4 11 -1 11 -10 0 -8 163 1 179 4
6 3 11 -1 11 -9 0 -10 77 0 86 3 3 3 16 -1 28 -9 27 -8 149 2 164 4 7 3 12 -2
12 -9 0 -7 83 3 100 3 5 1 10 -6 10 -8 0 -9 3 0 13 6 8 8 17 4 20 -9 10 -10
78 -1 105 4 12 4 22 0 22 -9 0 -8 77 1 86 3 3 2 16 -2 28 -8 23 -7 86 2 110 4
9 3 16 -1 16 -6 0 -8 75 -2 90 1 3 1 10 0 15 -6 26 -5 173 2 193 4 12 4 22 0
22 -6 0 -8 75 -2 90 1 3 1 10 0 15 -6 28 -5 93 2 113 5 14 4 22 -3 22 -8 0 -8
4 0 13 6 8 8 17 4 20 -9 10 -10 78 -1 105 4 12 4 22 0 22 -9 0 -8 77 0 86 4 3
3 18 -1 32 -8 31 -7 64 3 81 4 6 4 11 -1 11 -10 0 -8 163 1 179 4 6 3 11 -1
11 -9 0 -10 77 0 86 3 3 3 16 -1 28 -9 27 -8 149 2 164 4 7 3 12 -2 12 -9 0
-7 83 3 100 3 5 1 10 -6 10 -8 0 -9 3 0 13 6 8 8 17 4 20 -9 10 -10 78 -1 105
4 12 4 22 0 22 -9 0 -8 77 0 86 4 3 3 18 -1 32 -8 31 -7 64 3 81 4 6 4 11 -1
11 -10 0 -8 163 1 179 4 6 3 11 -1 11 -9 0 -10 77 0 86 3 3 3 16 -1 28 -9 27
-9 47 1 64 5 6 5 12 0 12 -4 0 -8 20 -8 45 0 50 3 54 28 25z m7714 -58 c-1
-20 2 -43 7 -50 4 -6 4 -12 -1 -12 -10 0 -9 -212 1 -228 4 -7 4 -12 -1 -12
-10 0 -9 -373 1 -389 4 -6 4 -11 -1 -11 -10 0 -9 -212 1 -228 4 -7 4 -12 -1
-12 -10 0 -9 -373 1 -389 4 -6 4 -11 -1 -11 -10 0 -9 -212 1 -228 4 -7 4 -12
-1 -12 -10 0 -9 -373 1 -389 4 -6 4 -11 -1 -11 -10 0 -9 -212 1 -228 4 -7 4
-12 -1 -12 -10 0 -9 -373 1 -389 4 -6 4 -11 -1 -11 -10 0 -9 -212 1 -228 4 -7
4 -12 -1 -12 -10 0 -9 -373 1 -389 4 -6 4 -11 -1 -11 -10 0 -9 -212 1 -228 4
-7 4 -12 -1 -12 -10 0 -9 -373 1 -389 4 -6 4 -11 -1 -11 -10 0 -9 -212 1 -228
4 -7 4 -12 -1 -12 -10 0 -9 -373 1 -389 4 -6 4 -11 -1 -11 -10 0 -9 -212 1
-228 4 -7 4 -12 -1 -12 -10 0 -9 -373 1 -389 4 -6 4 -11 -1 -11 -10 0 -9 -212
1 -228 4 -7 4 -12 -1 -12 -12 0 -10 -384 2 -392 7 -5 7 -8 0 -8 -11 0 -11
-112 -1 -129 4 -6 4 -11 -1 -11 -4 0 -7 -38 -6 -85 l3 -84 -28 11 c-15 7 -46
25 -70 40 -24 15 -46 28 -49 28 -10 0 -115 92 -157 138 -48 52 -126 158 -126
171 0 5 -4 11 -9 13 -7 2 -61 111 -102 203 -12 28 -47 144 -54 180 -11 51 -12
149 -2 163 5 6 6 12 1 12 -11 0 -11 90 -1 108 5 6 5 12 0 12 -10 0 -10 91 0
108 5 6 5 12 0 12 -10 0 -10 91 0 108 5 6 5 12 0 12 -10 0 -10 91 0 108 5 6 5
12 0 12 -10 0 -10 771 1 788 4 7 4 12 -1 12 -10 0 -10 91 0 108 5 6 5 12 0 12
-10 0 -10 91 0 108 5 6 5 12 0 12 -10 0 -10 91 0 108 5 6 5 12 0 12 -10 0 -10
91 0 108 5 6 5 12 0 12 -10 0 -10 771 1 788 4 7 4 12 -1 12 -10 0 -10 91 0
108 5 6 5 12 0 12 -10 0 -10 91 0 108 5 6 5 12 0 12 -10 0 -10 91 0 108 5 6 5
12 0 12 -10 0 -10 91 0 108 5 6 5 12 0 12 -10 0 -10 771 1 788 4 7 4 12 -1 12
-10 0 -10 91 0 108 5 6 5 12 0 12 -10 0 -10 91 0 108 5 6 5 12 0 12 -10 0 -10
91 0 108 5 6 5 12 0 12 -10 0 -10 91 0 108 5 6 5 12 0 12 -4 0 -8 55 -7 123
l1 124 53 49 c104 97 277 277 347 362 20 24 50 58 67 77 17 18 51 61 76 94 25
33 48 60 52 61 3 0 6 -17 5 -38z m-6147 -1282 c89 -49 278 -142 368 -180 l52
-22 0 -502 c1 -1107 -2 -2043 -5 -2071 -11 -87 -42 -212 -56 -231 -5 -6 -10
-19 -12 -30 -4 -20 -58 -135 -68 -144 -3 -3 -15 -22 -28 -43 -13 -21 -30 -44
-38 -52 -8 -8 -12 -15 -10 -15 9 0 -128 -137 -173 -172 -59 -47 -196 -128
-204 -121 -3 4 -6 834 -6 1845 l0 1839 48 -27 c26 -15 85 -48 132 -74z m4737
-1747 c0 -1006 -2 -1832 -5 -1837 -2 -4 -7 -4 -11 0 -3 5 -33 23 -66 39 -99
49 -228 161 -305 263 -14 19 -31 40 -37 47 -7 8 -13 16 -13 19 0 3 -16 30 -35
61 -20 30 -33 55 -30 55 3 0 -3 17 -13 38 -23 44 -57 150 -67 207 -4 22 -9 51
-12 65 -3 14 -6 597 -7 1296 -1 1109 1 1273 14 1285 8 8 15 13 15 11 0 -5 48
14 113 45 31 15 59 27 62 28 9 1 244 122 290 149 25 14 59 33 75 41 17 8 30
14 31 15 0 0 1 -822 1 -1827z m-3422 1268 c28 -6 64 -13 80 -15 17 -2 30 -5
30 -6 0 -2 14 -4 30 -5 17 -2 30 -4 30 -5 0 -2 33 -8 85 -14 25 -3 45 -6 45
-6 0 -1 14 -3 30 -5 17 -2 53 -6 80 -9 118 -15 287 -28 397 -30 38 0 68 -5 68
-10 0 -5 6 -5 13 0 11 8 32 10 47 4 12 -4 70 -5 70 0 0 3 48 5 108 6 170 2
438 21 472 34 3 1 9 2 13 1 7 -1 69 8 172 25 22 4 49 8 60 10 11 1 20 3 20 4
0 1 9 3 20 4 11 2 34 6 50 9 17 4 44 9 60 12 l31 4 1 -1157 c1 -636 5 -1182 8
-1212 3 -30 8 -68 9 -85 2 -16 5 -30 6 -30 1 0 3 -15 6 -34 2 -19 9 -53 15
-75 6 -23 13 -50 16 -61 8 -38 11 -50 13 -50 1 0 4 -9 6 -20 8 -36 10 -40 22
-62 7 -13 11 -23 8 -23 -6 0 19 -58 74 -177 38 -80 163 -279 214 -338 90 -105
140 -158 206 -217 103 -92 121 -107 153 -126 15 -9 27 -20 27 -24 0 -4 7 -8
15 -8 8 0 15 -3 15 -7 0 -5 10 -13 23 -19 62 -32 142 -79 145 -86 2 -4 8 -8
14 -8 6 0 40 -14 76 -31 79 -37 289 -109 319 -109 12 0 24 -4 27 -8 2 -4
-1112 -8 -2476 -8 -1364 0 -2467 4 -2451 8 15 5 37 10 48 12 39 8 161 48 220
73 66 26 247 115 255 124 3 3 39 27 80 54 41 26 77 50 80 54 3 3 23 19 45 35
60 44 254 242 305 311 75 101 165 241 158 247 -2 2 6 17 18 33 50 72 143 331
168 466 2 13 5 24 6 24 1 0 4 14 5 30 2 17 5 44 9 60 15 83 18 309 19 1338 0
1021 1 1117 16 1113 9 -2 39 -9 66 -15z m4685 -4793 c53 -24 87 -55 117 -105
24 -41 27 -58 30 -147 2 -97 1 -103 -29 -156 -31 -55 -146 -230 -157 -240 -3
-3 -33 -39 -66 -80 -140 -178 -343 -375 -557 -542 -94 -74 -342 -248 -354
-248 -1 0 -46 -27 -98 -60 -53 -32 -96 -56 -96 -52 0 4 -4 2 -8 -3 -4 -6 -29
-22 -57 -37 -27 -14 -71 -37 -96 -51 -156 -82 -543 -250 -553 -239 -3 3 -6 -1
-6 -8 0 -7 -3 -11 -6 -7 -3 3 -30 -5 -60 -18 -30 -13 -58 -24 -62 -25 -24 -3
-59 -14 -69 -23 -7 -5 -13 -6 -13 -2 0 4 -7 2 -15 -5 -8 -7 -15 -10 -15 -6 0
3 -24 -3 -52 -13 -86 -31 -452 -129 -508 -136 -8 -1 -28 -5 -45 -8 -16 -4 -42
-9 -57 -12 -16 -3 -40 -7 -55 -10 -71 -14 -135 -24 -141 -24 -4 1 -9 0 -12 -1
-3 -1 -18 -4 -35 -6 -16 -2 -48 -6 -70 -9 -40 -5 -104 -11 -205 -21 -30 -3
-85 -7 -121 -8 -36 -1 -70 -6 -76 -9 -7 -4 -14 -3 -18 2 -3 6 -12 8 -20 5 -15
-6 -255 -11 -260 -6 -2 2 -52 6 -112 8 -59 2 -128 6 -153 8 -25 3 -76 8 -115
11 -38 4 -81 9 -95 11 -14 2 -43 7 -65 10 -22 3 -51 8 -65 10 -14 3 -41 7 -60
10 -19 3 -55 9 -80 14 -25 5 -56 12 -70 14 -14 3 -36 8 -50 11 -14 3 -36 7
-50 10 -14 2 -95 23 -180 45 -85 22 -164 42 -174 45 -33 8 -150 46 -171 56
-11 5 -29 11 -40 12 -11 2 -27 7 -35 10 -8 4 -59 22 -113 41 -54 20 -112 42
-130 50 -18 7 -72 30 -122 51 -49 21 -142 63 -205 93 -63 31 -118 55 -122 54
-5 -1 -8 3 -8 9 0 5 -4 8 -9 4 -5 -3 -12 -1 -15 4 -3 5 -28 20 -54 34 -26 14
-66 35 -88 48 -21 12 -59 33 -84 47 -25 14 -56 33 -70 42 -14 9 -82 55 -152
101 -71 45 -128 87 -128 91 0 4 -6 8 -13 8 -7 0 -27 14 -45 30 -18 17 -35 30
-38 30 -4 0 -50 37 -133 105 -138 115 -411 390 -411 414 0 6 -3 11 -7 11 -24
0 -249 321 -270 383 -3 9 -9 17 -12 17 -16 0 -19 204 -3 222 6 8 10 17 7 20
-3 3 13 26 35 51 27 30 58 52 90 64 47 18 189 18 3737 17 3334 -1 3691 -2
3723 -16z"/>
<path d="M3400 3027 c-105 -39 -182 -106 -228 -198 -74 -149 -59 -300 42 -435
43 -57 118 -107 211 -140 50 -18 187 -10 245 13 8 4 17 7 20 7 16 4 100 59
100 66 0 5 8 11 18 14 19 7 78 91 74 107 -1 5 2 9 7 9 11 0 30 51 38 100 26
153 -33 306 -154 400 -96 75 -258 100 -373 57z"/>
<path d="M8313 3026 c-123 -46 -202 -127 -249 -251 -13 -37 -15 -50 -18 -120
-9 -212 161 -401 368 -408 31 -1 56 -6 56 -11 0 -5 6 -4 13 1 6 6 19 11 27 11
62 2 161 53 221 113 108 108 147 273 99 410 -42 117 -107 190 -218 242 -90 42
-210 48 -299 13z"/>
<path d="M5155 2412 c-49 -5 -138 -32 -175 -54 -49 -30 -126 -110 -152 -161
-75 -145 -52 -339 53 -451 16 -17 29 -34 29 -38 0 -5 7 -8 15 -8 8 0 15 -3 15
-7 0 -11 95 -63 114 -63 9 0 16 -4 16 -8 0 -4 8 -8 18 -9 113 -8 143 -8 177
-1 22 5 47 11 55 15 8 3 17 7 20 8 52 13 162 107 190 162 8 15 18 30 22 33 4
3 9 17 12 32 2 14 9 35 14 45 5 10 9 53 10 96 1 163 -79 296 -224 367 -59 29
-151 48 -209 42z"/>
<path d="M6732 2399 c-4 -3 -27 -14 -51 -23 -136 -53 -237 -200 -244 -356 -2
-33 -1 -63 2 -66 3 -2 7 -15 9 -27 4 -25 10 -50 12 -57 1 -3 2 -8 1 -12 0 -5
3 -8 9 -8 6 0 9 -3 8 -7 -4 -17 35 -76 80 -121 98 -98 242 -139 377 -107 58
13 155 61 155 75 0 6 5 10 11 10 29 0 120 140 134 205 49 224 -70 427 -288
492 -48 14 -199 16 -215 2z"/>
</g>
</svg>
