<?xml version="1.0" standalone="no"?>
<!DOCTYPE svg PUBLIC "-//W3C//DTD SVG 20010904//EN"
 "http://www.w3.org/TR/2001/REC-SVG-20010904/DTD/svg10.dtd">
<svg version="1.0" xmlns="http://www.w3.org/2000/svg"
 width="700.000000pt" height="700.000000pt" viewBox="0 0 700.000000 700.000000"
 preserveAspectRatio="xMidYMid meet">
<metadata>
Created by potrace 1.14, written by Peter Selinger 2001-2017
</metadata>
<g transform="translate(0.000000,700.000000) scale(0.100000,-0.100000)"
fill="#000000" stroke="none">
<path d="M859 6754 c-317 -59 -567 -275 -616 -532 -7 -34 -6 -2308 1 -3947 3
-746 -4 -686 104 -848 178 -267 495 -514 945 -734 213 -105 525 -221 747 -278
36 -9 88 -23 115 -31 45 -12 210 -48 275 -59 14 -2 66 -11 116 -19 50 -9 113
-18 140 -22 27 -3 60 -7 74 -9 14 -3 57 -7 95 -10 39 -3 84 -8 100 -10 193
-25 979 -25 1180 0 17 2 57 7 90 10 33 4 75 8 93 11 90 12 110 14 147 20 22 4
49 8 60 10 11 3 36 7 55 10 59 9 300 64 395 90 842 231 1508 680 1761 1189
l30 60 -1 2275 -1 2275 -27 78 c-84 242 -295 410 -590 469 -90 18 -5192 19
-5288 2z m781 -531 c380 -386 922 -642 1520 -718 203 -26 534 -26 700 0 14 2
48 6 75 10 28 3 57 8 65 10 8 2 31 6 50 9 109 16 366 89 485 138 129 53 149
62 255 116 206 106 403 248 574 414 l101 98 228 0 c137 0 227 -4 225 -9 -16
-46 -246 -297 -361 -396 -33 -27 -64 -55 -70 -61 -28 -25 -209 -154 -283 -201
-116 -74 -330 -183 -464 -236 -187 -74 -446 -150 -581 -171 -20 -3 -42 -7 -50
-10 -8 -3 -33 -7 -57 -10 -85 -12 -128 -18 -152 -22 -109 -18 -457 -24 -640
-11 -618 44 -1232 276 -1699 644 -134 105 -337 314 -434 446 l-28 37 233 0
233 0 75 -77z m2984 49 c-360 -261 -555 -341 -914 -377 -53 -6 -370 -6 -410
-1 -19 3 -57 7 -85 10 -235 24 -463 116 -725 291 -80 53 -147 99 -149 101 -2
2 519 4 1159 4 l1163 0 -39 -28z m-3692 -577 c119 -116 152 -145 233 -210 28
-21 53 -43 56 -48 3 -4 5 -625 5 -1380 l-2 -1372 -22 -57 c-34 -84 -111 -196
-176 -255 -51 -47 -147 -109 -198 -128 -17 -7 -18 82 -18 1781 0 983 2 1785 4
1783 3 -2 56 -53 118 -114z m5263 -1677 c0 -1689 -1 -1773 -18 -1770 -22 4
-127 61 -145 79 -8 7 -29 25 -48 39 -67 51 -160 195 -195 301 -9 27 -12 373
-12 1395 l0 1359 24 17 c62 43 210 173 292 257 51 51 94 93 97 94 3 0 5 -797
5 -1771z m-4120 947 l130 -52 2 -739 c3 -801 4 -769 -50 -895 -17 -39 -85
-129 -126 -167 -54 -49 -209 -142 -237 -142 -2 0 -4 477 -4 1059 l0 1060 78
-36 c42 -20 136 -59 207 -88z m3140 -935 c-1 -577 -4 -1052 -7 -1056 -8 -7
-114 46 -174 87 -63 43 -148 142 -183 213 -56 114 -57 125 -56 910 l0 719 165
67 c137 56 255 106 255 109 0 1 0 -471 0 -1049z m-2354 720 c30 -5 79 -12 109
-16 30 -4 66 -8 80 -10 28 -3 147 -14 212 -19 136 -11 499 -5 633 10 80 9 211
25 235 29 14 3 42 7 63 10 l37 6 1 -668 c0 -367 2 -674 4 -682 1 -8 8 -44 15
-79 23 -126 82 -249 180 -379 109 -144 261 -264 445 -352 116 -56 168 -75 285
-104 l85 -21 63 -94 c34 -52 62 -98 62 -102 0 -5 -186 -6 -412 -4 -227 2 -773
7 -1213 10 -440 4 -957 8 -1150 10 -192 2 -489 4 -658 5 l-308 2 24 32 c13 17
43 57 66 88 24 32 51 58 60 59 53 2 221 54 326 100 330 144 581 426 648 729
16 71 20 210 22 800 1 355 3 646 4 648 2 4 27 2 82 -8z m3332 -2939 c11 -11
-11 -46 -86 -136 -267 -318 -708 -592 -1257 -777 -216 -73 -516 -148 -710
-177 -181 -27 -189 -28 -290 -36 -47 -3 -101 -8 -120 -11 -43 -5 -382 -5 -465
0 -89 6 -177 15 -300 31 -112 14 -338 59 -480 95 -716 181 -1308 517 -1624
920 -78 99 -78 99 97 102 425 8 5226 -2 5235 -11z"/>
<path d="M1982 1613 c-130 -39 -188 -172 -119 -274 90 -134 324 -130 410 6
100 157 -88 330 -291 268z"/>
<path d="M4860 1620 c-130 -37 -203 -156 -154 -253 70 -138 276 -171 393 -63
104 97 67 251 -74 306 -36 15 -130 20 -165 10z"/>
<path d="M2936 1305 c-111 -43 -166 -143 -129 -235 46 -114 203 -169 328 -116
157 67 173 248 30 332 -56 32 -169 42 -229 19z"/>
<path d="M3920 1310 c-163 -47 -214 -215 -96 -317 105 -93 293 -75 370 35 89
126 -13 282 -187 288 -34 1 -73 -2 -87 -6z"/>
</g>
</svg>
