<?xml version="1.0" encoding="UTF-8"?><svg id="Layer_1" xmlns="http://www.w3.org/2000/svg" viewBox="0 0 100 60"><defs><style>.cls-1{fill:#fff;}.cls-2{fill:#ffd316;}.cls-3{font-family:AvenirNext-Bold, 'Avenir Next';font-size:15.71px;font-weight:700;}</style></defs><polygon class="cls-2" points="96.59 57.03 3.41 57.03 4.55 51.42 2.27 43.56 4.37 36.98 1.77 29.25 4.55 23.36 2.27 15.51 4.55 8.77 3.41 2.04 96.59 2.04 95.45 8.77 97.73 15.51 95.45 23.36 97.73 30.1 95.45 36.83 97.73 44.06 95.45 51.42 96.59 57.03"/><path d="m98.44,0H1.56C.7,0,0,.76,0,1.7v2.43C0,5,.6,5.73,1.39,5.82c1.39.16,2.44,1.41,2.44,2.93s-1.05,2.76-2.44,2.93c-.79.09-1.39.81-1.39,1.69v4.93c0,.87.6,1.6,1.39,1.69,1.39.16,2.44,1.41,2.44,2.93s-1.05,2.76-2.44,2.93c-.79.09-1.39.81-1.39,1.69v4.93c0,.87.6,1.6,1.39,1.69,1.39.16,2.44,1.41,2.44,2.93s-1.05,2.76-2.44,2.93c-.79.09-1.39.81-1.39,1.69v4.93c0,.87.6,1.6,1.39,1.69,1.39.16,2.44,1.41,2.44,2.93s-1.05,2.76-2.44,2.93c-.79.09-1.39.81-1.39,1.69v2.43c0,.94.7,1.7,1.56,1.7h96.88c.86,0,1.56-.76,1.56-1.7v-2.41c0-.88-.62-1.63-1.44-1.7-1.41-.11-2.51-1.4-2.51-2.93s1.1-2.82,2.51-2.93c.81-.07,1.44-.8,1.44-1.7v-4.91c0-.88-.62-1.63-1.44-1.7-1.41-.11-2.51-1.4-2.51-2.93s1.1-2.82,2.51-2.93c.81-.07,1.44-.8,1.44-1.7v-4.91c0-.88-.62-1.63-1.44-1.7-1.41-.11-2.51-1.4-2.51-2.93s1.1-2.82,2.51-2.93c.81-.07,1.44-.8,1.44-1.7v-4.91c0-.88-.62-1.63-1.44-1.7-1.41-.11-2.51-1.4-2.51-2.93s1.1-2.82,2.51-2.93c.81-.07,1.44-.8,1.44-1.7V1.72c0-.94-.7-1.7-1.56-1.7v-.02Zm-1.56,14.73v2.17c-2.31.86-3.96,3.25-3.96,6s1.65,5.14,3.96,6v2.17c-2.31.86-3.96,3.25-3.96,6s1.65,5.14,3.96,6v2.17c-2.31.86-3.96,3.25-3.96,6,0,2.22,1.08,4.21,2.71,5.34H4.25c1.63-1.13,2.7-3.11,2.7-5.34,0-2.72-1.57-5.06-3.83-5.95v-2.26c2.25-.89,3.83-3.24,3.83-5.95s-1.57-5.06-3.83-5.95v-2.26c2.25-.89,3.83-3.24,3.83-5.95s-1.57-5.06-3.83-5.95v-2.26c2.25-.89,3.83-3.24,3.83-5.95,0-2.24-1.06-4.22-2.7-5.34h91.39c-1.63,1.13-2.71,3.12-2.71,5.34,0,2.75,1.65,5.14,3.96,6h0Z"/><polyline class="cls-1" points="80.51 43.77 18.27 43.77 14.6 40.59 10.94 38.19 10.94 19.86 15.82 17.47 19.49 14.28 80.51 15.3 87.84 20.38 87.84 38.69"/><path d="m86.55,17.98c-1.94-.27-3.48-1.42-3.85-2.86-.28-1.08-1.54-1.86-3.02-1.86H20.32c-1.48,0-2.75.78-3.02,1.86-.37,1.44-1.91,2.58-3.85,2.86-1.45.2-2.5,1.15-2.5,2.24v18.63c0,1.1,1.05,2.04,2.5,2.24,1.94.27,3.48,1.42,3.85,2.86.28,1.08,1.54,1.86,3.02,1.86h59.36c1.48,0,2.75-.78,3.02-1.86.37-1.44,1.91-2.58,3.85-2.86,1.45-.2,2.5-1.15,2.5-2.24v-18.63c0-1.1-1.05-2.04-2.5-2.24Zm-6.98-2.33c.57,2.09,2.61,3.78,5.28,4.46.6.15,1,.56,1,1.03v16.8c0,.47-.41.88-1,1.03-2.34.6-4.2,1.97-5,3.71-.21.44-.76.74-1.39.74H21.55c-.63,0-1.19-.3-1.39-.74-.81-1.74-2.66-3.12-5-3.71-.6-.15-1-.56-1-1.03v-16.8c0-.47.41-.88,1-1.03,2.67-.68,4.7-2.37,5.27-4.46"/><text class="cls-3" transform="translate(17.51 35.24) scale(1.01 1)"><tspan x="0" y="0">TICKETS</tspan></text></svg>