<?xml version="1.0" encoding="utf-8"?>
<!-- Generator: Adobe Illustrator 27.8.1, SVG Export Plug-In . SVG Version: 6.00 Build 0)  -->
<svg version="1.1" id="Layer_1" xmlns="http://www.w3.org/2000/svg" xmlns:xlink="http://www.w3.org/1999/xlink" x="0px" y="0px"
	 viewBox="0 0 256 256" style="enable-background:new 0 0 256 256;" xml:space="preserve">
<style type="text/css">
	.ibdb_st0{fill:#2c2561;}
	.ibdb_st1{display:none;fill:#2c2561;}
	.ibdb_st2{fill:#FFFFFF;}
	.ibdb_st3{font-family:'Times-Roman';}
	.ibdb_st4{font-size:84px;}
	.ibdb_st5{fill:#0477BF;}
</style>
<path class="ibdb_st0" d="M128,256L128,256C57.3,256,0,198.7,0,128v0C0,57.3,57.3,0,128,0h0c70.7,0,128,57.3,128,128v0
	C256,198.7,198.7,256,128,256z"/>
<path class="ibdb_st1" d="M75.6,146.9c0.6-7.3-0.1-13.1-0.1-21.2c3.7,0.3,8.6-0.2,11.8,0.4c5.7,1.1,8.8,5.1,8.7,11
	c-0.1,5.5-3.2,9.1-9.2,9.8C83.3,147.2,79.8,146.9,75.6,146.9L75.6,146.9z"/>
<path class="ibdb_st1" d="M191.3,150.1c5.9,1.1,11,1.6,15.8,3c4.8,1.5,6.5,5.1,6.4,10.6c-0.1,5.5-2.1,8.6-7,10.3c-4.6,1.7-9.4,1.8-15,0.5
	C190.9,166.9,191.3,159.2,191.3,150.1L191.3,150.1z"/>
<path class="ibdb_st1" d="M191.5,147.6v-21.7c5.8-1,11.3-0.9,16.3,2.3c3.8,2.4,4.4,6.5,3.9,10.6c-0.5,4-2.9,6.8-6.9,7.5
	C200.5,147,196.2,147.1,191.5,147.6L191.5,147.6z"/>
<text transform="matrix(1 0 0 1 30.2903 178.1976)" class="ibdb_st2 ibdb_st3 ibdb_st4">IBDB</text>
<path class="ibdb_st5" d="M130.4,80.8c7.8-3.9,16.5-8.1,23.9-11.8l-0.6,1.3c-4.7,7.5-9.3,15-14.3,23.1c6.5,6.8,13.1,13.5,19.6,20.3
	c-10-1.7-19.9-3.3-30.4-5c-3.2,5.1-6.5,9.5-9.4,14.2c-0.5,0.8-1.1,1.8-1.6,2.5l0,0c-2.8,3.4-5.3,7.1-8.2,10.5
	c1.1-9.9,2.1-19.7,3.3-30.1c-9.6-1.4-19.1-2.8-28.6-4.2c9.8-4.3,19.6-8.5,30.1-13c0.7-10.1,1.4-20.3,2.1-30.5"/>
</svg>
