<?xml version="1.0" encoding="UTF-8"?><svg id="website" xmlns="http://www.w3.org/2000/svg" viewBox="0 0 50 50"><defs><style>.websitecls-1,.websitecls-2{stroke-width:0px;}.websitecls-2{fill:#fff;}</style></defs><circle class="websitecls-1" cx="25" cy="25" r="25"/><path class="websitecls-2" d="m37.67,23.59l-5.63,5.63c-3.11,3.11-8.15,3.11-11.26,0-.49-.49-.87-1.04-1.21-1.61l2.62-2.62c.12-.13.28-.2.42-.28.18.62.5,1.2.98,1.69,1.55,1.55,4.08,1.55,5.63,0l5.63-5.63c1.55-1.55,1.55-4.08,0-5.63-1.55-1.55-4.08-1.55-5.63,0l-2,2c-1.62-.63-3.37-.8-5.08-.55l4.27-4.27c3.11-3.11,8.15-3.11,11.26,0,3.11,3.11,3.11,8.15,0,11.26Zm-14.89,9.26l-2,2c-1.55,1.55-4.08,1.55-5.63,0-1.55-1.55-1.55-4.08,0-5.63l5.63-5.63c1.55-1.55,4.08-1.55,5.63,0,.48.49.8,1.07.98,1.69.15-.09.3-.16.42-.28l2.62-2.62c-.33-.57-.72-1.12-1.21-1.61-3.11-3.11-8.15-3.11-11.26,0l-5.63,5.63c-3.11,3.11-3.11,8.15,0,11.26,3.11,3.11,8.15,3.11,11.26,0l4.27-4.27c-1.7.25-3.46.08-5.08-.55Z"/></svg>