<?xml version="1.0" encoding="UTF-8"?><svg id="Logo" xmlns="http://www.w3.org/2000/svg" viewBox="0 0 1500 2000"><defs><style>.cls-1{fill:#fff;font-family:AvenirNext-Bold, 'Avenir Next';font-size:478.02px;font-weight:700;}.cls-2{fill:#ffd316;}.cls-3{letter-spacing:-.02em;}.cls-4{letter-spacing:.02em;}.cls-5{letter-spacing:.04em;}</style></defs><rect width="1500" height="2000"/><g id="New_Logo"><path class="cls-2" d="M82.28,799.57c11.68,71.22,187.54,204.18,457.93,200.34v-.33c226.57,6.7,413.1-90.36,459.31-199.95h0v-100.6c.46-6.14,0-41.78,0-47.99V172.18c0-17.53-6.1-33.87-16.48-47.79-14.8-19.82-38.47-34.56-66.46-40.53-8.83-1.87-18.02-2.99-27.54-2.99H191.18c-8.24,0-16.25.79-23.99,2.23-28.06,5.15-52.12,19.04-67.68,38.11-11.88,14.54-18.81,32.1-18.81,50.97M706.39,146.65c.39,0-1.77-.3-2.07-.1-45.06,30.46-72.83,65.64-164.11,65.64-85.47,0-118.91-34.46-163.95-64.92-.3-.2-.13-.62.26-.62,0,0,329.86,0,329.86,0ZM267.86,146.55s.23-.03.33.03c62.1,69.45,159.74,114.84,272.03,114.84s200.48-45.43,262.57-114.88c.07-.1,13.33-.1,13.42-.1l52.22.1c.33,0,13.16.2,13,.43-69.06,95.41-197.13,163.68-341.22,163.68s-268.48-68.27-337.54-163.68c-.16-.23,2.43-.43,2.76-.43,0,0,62.43,0,62.43,0ZM277.64,711.09c-.2-.16,14.67-26.26,14.67-26.26,80.91-13.42,146.16-73.32,146.16-144.42l-.39-177.57c0-.23.13.3.39.33,33.35,6.17,68.04,9.85,103.59,9.85s68.11-4.14,100.53-9.95c.26-.03-.59-.1-.59.1v177.24c0,70.07,65.12,129.91,144.42,144.42.46.1,16.9,26.26,16.41,26.26M299.86,615.02v-297.53c0-.26.33-.43.59-.3,18.58,9.12,37.94,17.26,58.03,24.26.16.07.23.16.23.3v198.67c0,33.28-24.06,61.87-58.29,74.6-.26.1-.62.26-.62,0h.07ZM722.41,540.41v-196.73s.1-.16.26-.2c20.09-6.86,39.45-15.89,58.03-24.85.26-.13.59,0,.59.3v296.12c0,.26-.33.43-.62.33-34.23-12.73-58.29-41.68-58.29-74.93l.03-.03ZM170.24,714.14c-2.72,1.31-5.61,2.53-8.63,3.61V215.02c0-.33.49-.46.72-.2,17.36,19.1,36.83,36.86,58.03,53.04.07.07.13.16.13.23v383.88c-2.3,9.19-13.39,44.54-50.25,62.16h0ZM180.26,776.37h713.35c12.9,0,4.1-.13,25.9.3v3.97l-.07.1c-63.61,95.08-234.71,158.14-379.32,158.14s-314.79-63.25-378.47-158.2c0-.03-.1-3.97-.07-3.97M919.47,666.97v50.81c-3.32-1.18-6.4-2.56-9.39-4-35.64-17.46-46.87-51.6-49.5-61.84v-381.49s.03-.2.13-.23c21.2-15.92,40.6-33.41,58.03-52.22.23-.26.72-.13.72.2v448.77Z"/><path class="cls-2" d="M723.08,808.47c-1.84-.98-3.71-1.87-5.71-2.53-2-.75-4.1-1.21-6.24-1.64-4.23-.66-8.76-.66-13,0-2.13.43-4.23.89-6.24,1.64-2,.66-3.84,1.54-5.71,2.53-1.71.98-3.45,2.1-5.02,3.41-6.1,5.05-9.68,12.14-9.68,19.4s3.58,14.24,9.68,19.27c6.24,5.15,14.87,8.11,23.47,8.11,2.13,0,4.37-.23,6.5-.56,2.1-.33,4.23-.89,6.24-1.64,1.97-.66,3.84-1.54,5.71-2.53,1.71-.98,3.45-2.1,5.02-3.41,6.1-5.05,9.68-12.14,9.68-19.27s-3.58-14.34-9.68-19.4c-1.61-1.31-3.31-2.43-5.02-3.41v.03Z"/><path class="cls-2" d="M566.43,847.69h-.13c-17.89,3.18-29.15,17.76-25.34,32.56,3.45,12.8,17.1,21.56,32.36,21.56,2.4,0,4.79-.23,7.16-.66,17.89-3.18,29.18-17.76,25.34-32.53-3.84-14.77-21.6-24.09-39.39-20.94h0Z"/><path class="cls-2" d="M445.15,847.56c-17.89-3.28-35.55,5.91-39.65,20.71-3.97,14.8,7.32,29.38,25.21,32.76,2.4.43,4.79.66,7.16.66,15.23,0,28.92-8.67,32.36-21.37,4-14.8-7.16-29.47-25.04-32.76h-.03Z"/><path class="cls-2" d="M320.79,808.47c-1.84-.98-3.71-1.87-5.71-2.53-2-.75-4.1-1.21-6.24-1.64-4.23-.66-8.73-.66-13,0-2.13.43-4.1.89-6.24,1.64-2,.66-3.84,1.54-5.71,2.53-1.71.98-3.45,2.1-5.02,3.41-6.1,5.05-9.68,12.14-9.68,19.4s3.58,14.24,9.68,19.27c6.24,5.15,14.87,8.11,23.47,8.11,2.1,0,4.37-.23,6.5-.56,2.13-.33,4.23-.89,6.24-1.64,1.97-.66,3.84-1.54,5.71-2.53,1.84-.98,3.45-2.1,5.02-3.41,6.1-5.05,9.68-12.14,9.68-19.27s-3.58-14.34-9.68-19.4c-1.61-1.31-3.18-2.43-5.02-3.41v.03Z"/></g><text class="cls-1" transform="translate(80.71 1436.35) scale(.88 1)"><tspan class="cls-4" x="0" y="0">J</tspan><tspan class="cls-5" x="264.34" y="0">A</tspan><tspan class="cls-4" x="630.02" y="0">X</tspan></text><text class="cls-1" transform="translate(54.47 1879.03) scale(.88 1)"><tspan class="cls-5" x="0" y="0">PL</tspan><tspan class="cls-3" x="591.78" y="0">A</tspan><tspan class="cls-5" x="928.77" y="0">YS</tspan></text></svg>