<?xml version="1.0" encoding="UTF-8"?><svg id="Logo" xmlns="http://www.w3.org/2000/svg" viewBox="0 0 1000 1000"><defs><style>.cls-1{fill:#ffd316;}</style></defs><rect y="-1.21" width="1000" height="1000"/><g id="New_Logo"><path class="cls-1" d="M187.62,675.56c7.97,48.59,127.94,139.29,312.38,136.67v-.22c154.56,4.57,281.8-61.64,313.32-136.4h0v-68.62c.31-4.19,0-28.5,0-32.73V247.58c0-11.96-4.16-23.11-11.24-32.6-10.1-13.52-26.24-23.58-45.34-27.65-6.02-1.28-12.29-2.04-18.79-2.04h-476.05c-5.62,0-11.08.54-16.37,1.52-19.14,3.52-35.55,12.99-46.17,25.99-8.11,9.92-12.83,21.9-12.83,34.77M613.36,230.16c.27,0-1.21-.2-1.41-.07-30.74,20.78-49.68,44.78-111.95,44.78-58.3,0-81.12-23.51-111.84-44.29-.2-.13-.09-.43.18-.43,0,0,225.02,0,225.02,0ZM314.21,230.1s.16-.02.22.02c42.36,47.38,108.97,78.34,185.57,78.34s136.76-30.99,179.12-78.36c.04-.07,9.09-.07,9.16-.07l35.62.07c.22,0,8.98.13,8.87.29-47.11,65.09-134.47,111.66-232.76,111.66s-183.15-46.57-230.26-111.66c-.11-.16,1.66-.29,1.88-.29,0,0,42.59,0,42.59,0ZM320.88,615.2c-.13-.11,10.01-17.91,10.01-17.91,55.19-9.16,99.7-50.02,99.7-98.52l-.27-121.13c0-.16.09.2.27.22,22.75,4.21,46.41,6.72,70.66,6.72s46.46-2.82,68.58-6.78c.18-.02-.4-.07-.4.07v120.9c0,47.8,44.42,88.62,98.52,98.52.31.07,11.53,17.91,11.19,17.91M336.04,549.66v-202.96c0-.18.22-.29.4-.2,12.67,6.22,25.88,11.78,39.59,16.55.11.04.16.11.16.2v135.53c0,22.7-16.41,42.2-39.76,50.89-.18.07-.43.18-.43,0h.04ZM624.28,498.77v-134.2s.07-.11.18-.13c13.7-4.68,26.91-10.84,39.59-16.95.18-.09.4,0,.4.2v202c0,.18-.22.29-.43.22-23.35-8.69-39.76-28.44-39.76-51.12l.02-.02ZM247.62,617.28c-1.86.9-3.83,1.72-5.89,2.46v-342.94c0-.22.34-.31.49-.13,11.84,13.03,25.12,25.14,39.59,36.18.04.04.09.11.09.16v261.87c-1.57,6.27-9.14,30.38-34.28,42.41h0ZM254.45,659.73h486.62c8.8,0,2.8-.09,17.67.2v2.71l-.04.07c-43.39,64.86-160.11,107.87-258.76,107.87s-214.74-43.15-258.18-107.92c0-.02-.07-2.71-.04-2.71M758.71,585.11v34.66c-2.26-.81-4.37-1.75-6.4-2.73-24.32-11.91-31.97-35.2-33.76-42.18v-260.24s.02-.13.09-.16c14.46-10.86,27.7-22.79,39.59-35.62.16-.18.49-.09.49.13v306.14Z"/><path class="cls-1" d="M624.75,681.63c-1.25-.67-2.53-1.28-3.9-1.72-1.37-.51-2.8-.83-4.25-1.12-2.89-.45-5.98-.45-8.87,0-1.46.29-2.89.6-4.25,1.12-1.37.45-2.62,1.05-3.9,1.72-1.16.67-2.35,1.43-3.43,2.33-4.16,3.45-6.6,8.28-6.6,13.23s2.44,9.72,6.6,13.14c4.25,3.52,10.14,5.53,16.01,5.53,1.46,0,2.98-.16,4.43-.38,1.43-.22,2.89-.6,4.25-1.12,1.34-.45,2.62-1.05,3.9-1.72,1.16-.67,2.35-1.43,3.43-2.33,4.16-3.45,6.6-8.28,6.6-13.14s-2.44-9.78-6.6-13.23c-1.1-.9-2.26-1.66-3.43-2.33v.02Z"/><path class="cls-1" d="M517.88,708.39h-.09c-12.2,2.17-19.88,12.11-17.28,22.21,2.35,8.73,11.67,14.71,22.08,14.71,1.63,0,3.27-.16,4.88-.45,12.2-2.17,19.9-12.11,17.28-22.19-2.62-10.08-14.73-16.43-26.87-14.28h0Z"/><path class="cls-1" d="M435.15,708.3c-12.2-2.24-24.25,4.03-27.05,14.13-2.71,10.1,4.99,20.04,17.2,22.34,1.63.29,3.27.45,4.88.45,10.39,0,19.73-5.91,22.08-14.58,2.73-10.1-4.88-20.11-17.08-22.34h-.02Z"/><path class="cls-1" d="M350.31,681.63c-1.25-.67-2.53-1.28-3.9-1.72-1.37-.51-2.8-.83-4.25-1.12-2.89-.45-5.96-.45-8.87,0-1.46.29-2.8.6-4.25,1.12-1.37.45-2.62,1.05-3.9,1.72-1.16.67-2.35,1.43-3.43,2.33-4.16,3.45-6.6,8.28-6.6,13.23s2.44,9.72,6.6,13.14c4.25,3.52,10.14,5.53,16.01,5.53,1.43,0,2.98-.16,4.43-.38,1.46-.22,2.89-.6,4.25-1.12,1.34-.45,2.62-1.05,3.9-1.72,1.25-.67,2.35-1.43,3.43-2.33,4.16-3.45,6.6-8.28,6.6-13.14s-2.44-9.78-6.6-13.23c-1.1-.9-2.17-1.66-3.43-2.33v.02Z"/></g></svg>