<?xml version="1.0" encoding="UTF-8"?><svg id="Logo" xmlns="http://www.w3.org/2000/svg" viewBox="0 0 2500 1000"><defs><style>.cls-1{fill:#fff;font-family:AvenirNext-Bold, 'Avenir Next';font-size:478.02px;font-weight:700;}.cls-2{fill:#ffd316;}.cls-3{letter-spacing:-.02em;}.cls-4{letter-spacing:.02em;}.cls-5{letter-spacing:.04em;}</style></defs><rect x="0" width="2500" height="1000"/><g id="New_Logo"><path class="cls-2" d="M124.64,717.47c9.62,58.67,154.49,168.19,377.21,165.03v-.27c186.63,5.52,340.28-74.43,378.35-164.71h0v-82.87c.38-5.06,0-34.42,0-39.53V200.67c0-14.44-5.03-27.9-13.57-39.36-12.19-16.33-31.69-28.47-54.75-33.39-7.27-1.54-14.84-2.46-22.68-2.46H214.34c-6.79,0-13.38.65-19.76,1.84-23.12,4.24-42.93,15.68-55.75,31.39-9.79,11.98-15.49,26.44-15.49,41.99M638.73,179.64c.32,0-1.46-.24-1.7-.08-37.12,25.09-59.99,54.07-135.18,54.07-70.4,0-97.95-28.39-135.05-53.48-.24-.16-.11-.51.22-.51,0,0,271.71,0,271.71,0ZM277.5,179.56s.19-.03.27.03c51.15,57.21,131.59,94.6,224.08,94.6s165.14-37.42,216.29-94.63c.05-.08,10.98-.08,11.06-.08l43.01.08c.27,0,10.84.16,10.71.35-56.88,78.59-162.38,134.83-281.07,134.83s-221.16-56.24-278.04-134.83c-.14-.19,2-.35,2.27-.35,0,0,51.42,0,51.42,0ZM285.56,644.58c-.16-.14,12.09-21.63,12.09-21.63,66.64-11.06,120.39-60.4,120.39-118.96l-.32-146.27c0-.19.11.24.32.27,27.47,5.08,56.05,8.11,85.33,8.11s56.1-3.41,82.81-8.19c.22-.03-.49-.08-.49.08v146c0,57.72,53.64,107.01,118.96,118.96.38.08,13.92,21.63,13.52,21.63M303.86,565.45v-245.08c0-.22.27-.35.49-.24,15.3,7.52,31.25,14.22,47.8,19.98.14.05.19.14.19.24v163.65c0,27.41-19.82,50.96-48.02,61.45-.22.08-.51.22-.51,0h.05ZM651.93,503.99v-162.06s.08-.14.22-.16c16.55-5.65,32.5-13.09,47.8-20.47.22-.11.49,0,.49.24v243.92c0,.22-.27.35-.51.27-28.2-10.49-48.02-34.34-48.02-61.72l.03-.03ZM197.09,647.1c-2.24,1.08-4.62,2.08-7.11,2.97V235.96c0-.27.41-.38.59-.16,14.3,15.74,30.33,30.36,47.8,43.69.05.05.11.14.11.19v316.22c-1.89,7.57-11.03,36.69-41.39,51.21h0ZM205.34,698.36h587.61c10.63,0,3.38-.11,21.33.24v3.27l-.05.08c-52.4,78.32-193.34,130.26-312.46,130.26s-259.31-52.1-311.76-130.32c0-.03-.08-3.27-.05-3.27M814.25,608.25v41.85c-2.73-.97-5.27-2.11-7.73-3.3-29.36-14.38-38.61-42.5-40.77-50.94v-314.24s.03-.16.11-.19c17.47-13.11,33.44-27.52,47.8-43.01.19-.22.59-.11.59.16v369.67Z"/><path class="cls-2" d="M652.48,724.8c-1.51-.81-3.06-1.54-4.7-2.08-1.65-.62-3.38-1-5.14-1.35-3.49-.54-7.22-.54-10.71,0-1.76.35-3.49.73-5.14,1.35-1.65.54-3.16,1.27-4.7,2.08-1.41.81-2.84,1.73-4.14,2.81-5.03,4.16-7.98,10-7.98,15.98s2.95,11.73,7.98,15.87c5.14,4.24,12.25,6.68,19.33,6.68,1.76,0,3.6-.19,5.35-.46,1.73-.27,3.49-.73,5.14-1.35,1.62-.54,3.16-1.27,4.7-2.08,1.41-.81,2.84-1.73,4.14-2.81,5.03-4.16,7.98-10,7.98-15.87s-2.95-11.81-7.98-15.98c-1.32-1.08-2.73-2-4.14-2.81v.03Z"/><path class="cls-2" d="M523.44,757.11h-.11c-14.73,2.62-24.01,14.63-20.87,26.82,2.84,10.54,14.09,17.76,26.66,17.76,1.97,0,3.95-.19,5.89-.54,14.73-2.62,24.04-14.63,20.87-26.79-3.16-12.17-17.79-19.84-32.44-17.25h0Z"/><path class="cls-2" d="M423.54,757c-14.73-2.7-29.28,4.87-32.66,17.06-3.27,12.19,6.03,24.2,20.76,26.98,1.97.35,3.95.54,5.89.54,12.54,0,23.82-7.14,26.66-17.6,3.3-12.19-5.89-24.28-20.63-26.98h-.03Z"/><path class="cls-2" d="M321.1,724.8c-1.51-.81-3.06-1.54-4.7-2.08-1.65-.62-3.38-1-5.14-1.35-3.49-.54-7.19-.54-10.71,0-1.76.35-3.38.73-5.14,1.35-1.65.54-3.16,1.27-4.7,2.08-1.41.81-2.84,1.73-4.14,2.81-5.03,4.16-7.98,10-7.98,15.98s2.95,11.73,7.98,15.87c5.14,4.24,12.25,6.68,19.33,6.68,1.73,0,3.6-.19,5.35-.46,1.76-.27,3.49-.73,5.14-1.35,1.62-.54,3.16-1.27,4.7-2.08,1.51-.81,2.84-1.73,4.14-2.81,5.03-4.16,7.98-10,7.98-15.87s-2.95-11.81-7.98-15.98c-1.32-1.08-2.62-2-4.14-2.81v.03Z"/></g><text class="cls-1" transform="translate(1038.31 471.91) scale(.88 1)"><tspan class="cls-4" x="0" y="0">J</tspan><tspan class="cls-5" x="264.34" y="0">A</tspan><tspan class="cls-4" x="630.02" y="0">X</tspan></text><text class="cls-1" transform="translate(1006.16 882.57) scale(.88 1)"><tspan class="cls-5" x="0" y="0">PL</tspan><tspan class="cls-3" x="591.78" y="0">A</tspan><tspan class="cls-5" x="928.77" y="0">YS</tspan></text></svg>