<?xml version="1.0" encoding="UTF-8"?><svg id="Logo" xmlns="http://www.w3.org/2000/svg" viewBox="0 0 1500 2000"><defs><style>.cls-1{fill:#fff;font-family:AvenirNext-Bold, 'Avenir Next';font-size:478.02px;font-weight:700;}.cls-2{fill:#ffd316;}.cls-3{letter-spacing:-.02em;}.cls-4{letter-spacing:.02em;}.cls-5{letter-spacing:.04em;}</style></defs><rect width="1500" height="2000"/><g id="New_Logo"><path class="cls-2" d="M82.28,796.35c11.67,70.95,187.27,203.39,457.27,199.56v-.33c226.24,6.67,412.5-90.01,458.65-199.17h0v-100.21c.46-6.11,0-41.62,0-47.8V171.41c0-17.46-6.1-33.74-16.45-47.6-14.78-19.75-38.41-34.43-66.37-40.38-8.82-1.86-17.99-2.98-27.5-2.98H191.03c-8.23,0-16.22.78-23.96,2.22-28.02,5.13-52.05,18.96-67.58,37.96-11.86,14.48-18.78,31.97-18.78,50.77M705.49,145.97c.39,0-1.77-.29-2.06-.1-45,30.34-72.73,65.39-163.87,65.39-85.34,0-118.74-34.33-163.71-64.67-.29-.2-.13-.62.26-.62,0,0,329.38,0,329.38,0ZM267.59,145.88s.23-.03.33.03c62.01,69.18,159.51,114.4,271.63,114.4s200.19-45.25,262.2-114.43c.07-.1,13.31-.1,13.4-.1l52.14.1c.33,0,13.14.2,12.98.43-68.96,95.04-196.84,163.04-340.72,163.04s-268.1-68-337.05-163.04c-.16-.23,2.43-.43,2.75-.43,0,0,62.34,0,62.34,0ZM277.35,708.21c-.2-.16,14.65-26.16,14.65-26.16,80.79-13.37,145.94-73.04,145.94-143.85l-.39-176.87c0-.23.13.29.39.33,33.3,6.15,67.94,9.81,103.44,9.81s68.01-4.12,100.39-9.91c.26-.03-.59-.1-.59.1v176.55c0,69.8,65.02,129.4,144.21,143.85.46.1,16.88,26.16,16.39,26.16M299.54,612.51v-296.37c0-.26.33-.43.59-.29,18.55,9.09,37.89,17.2,57.95,24.16.16.07.23.16.23.29v197.9c0,33.15-24.02,61.63-58.21,74.31-.26.1-.62.26-.62,0h.07ZM721.48,538.2v-195.97s.1-.16.26-.2c20.06-6.83,39.39-15.82,57.95-24.75.26-.13.59,0,.59.29v294.96c0,.26-.33.43-.62.33-34.18-12.69-58.21-41.52-58.21-74.64l.03-.03ZM170.12,711.25c-2.72,1.31-5.6,2.52-8.62,3.6V214.07c0-.33.49-.46.72-.2,17.34,19.03,36.77,36.72,57.95,52.83.07.07.13.16.13.23v382.39c-2.29,9.15-13.37,44.37-50.18,61.92h0ZM180.11,773.24h712.32c12.88,0,4.1-.13,25.86.29v3.96l-.07.1c-63.52,94.71-234.37,157.52-378.77,157.52s-314.34-63-377.92-157.58c0-.03-.1-3.96-.07-3.96M918.26,664.27v50.61c-3.31-1.18-6.39-2.55-9.37-3.99-35.59-17.39-46.8-51.39-49.42-61.6v-380s.03-.2.13-.23c21.17-15.86,40.54-33.28,57.95-52.02.23-.26.72-.13.72.2v447.02Z"/><path class="cls-2" d="M758.32,805.21c-1.84-.98-3.7-1.86-5.7-2.52-2-.75-4.1-1.21-6.23-1.63-4.23-.65-8.75-.65-12.98,0-2.13.43-4.23.88-6.23,1.63-2,.65-3.83,1.54-5.7,2.52-1.7.98-3.44,2.09-5.01,3.4-6.1,5.03-9.67,12.1-9.67,19.32s3.57,14.19,9.67,19.19c6.23,5.13,14.85,8.08,23.43,8.08,2.13,0,4.36-.23,6.49-.56,2.1-.33,4.23-.88,6.23-1.63,1.97-.65,3.83-1.54,5.7-2.52,1.7-.98,3.44-2.09,5.01-3.4,6.1-5.03,9.67-12.1,9.67-19.19s-3.57-14.29-9.67-19.32c-1.61-1.31-3.31-2.42-5.01-3.4v.03Z"/><path class="cls-2" d="M601.89,844.28h-.13c-17.86,3.17-29.1,17.69-25.3,32.43,3.44,12.75,17.08,21.48,32.32,21.48,2.39,0,4.79-.23,7.14-.65,17.86-3.17,29.14-17.69,25.3-32.4-3.83-14.71-21.57-24-39.33-20.86h0Z"/><path class="cls-2" d="M480.78,844.15c-17.86-3.27-35.49,5.88-39.59,20.63-3.97,14.74,7.31,29.26,25.17,32.63,2.39.43,4.79.65,7.14.65,15.21,0,28.87-8.63,32.32-21.28,4-14.74-7.14-29.36-25.01-32.63h-.03Z"/><path class="cls-2" d="M356.6,805.21c-1.84-.98-3.7-1.86-5.7-2.52-2-.75-4.1-1.21-6.23-1.63-4.23-.65-8.72-.65-12.98,0-2.13.43-4.1.88-6.23,1.63-2,.65-3.83,1.54-5.7,2.52-1.7.98-3.44,2.09-5.01,3.4-6.1,5.03-9.67,12.1-9.67,19.32s3.57,14.19,9.67,19.19c6.23,5.13,14.85,8.08,23.43,8.08,2.1,0,4.36-.23,6.49-.56,2.13-.33,4.23-.88,6.23-1.63,1.97-.65,3.83-1.54,5.7-2.52,1.84-.98,3.44-2.09,5.01-3.4,6.1-5.03,9.67-12.1,9.67-19.19s-3.57-14.29-9.67-19.32c-1.61-1.31-3.18-2.42-5.01-3.4v.03Z"/></g><text class="cls-1" transform="translate(80.71 1436.35) scale(.88 1)"><tspan class="cls-4" x="0" y="0">J</tspan><tspan class="cls-5" x="264.34" y="0">A</tspan><tspan class="cls-4" x="630.02" y="0">X</tspan></text><text class="cls-1" transform="translate(54.47 1879.03) scale(.88 1)"><tspan class="cls-5" x="0" y="0">PL</tspan><tspan class="cls-3" x="591.78" y="0">A</tspan><tspan class="cls-5" x="928.77" y="0">YS</tspan></text></svg>