<?xml version="1.0" encoding="UTF-8"?><svg id="Logo" xmlns="http://www.w3.org/2000/svg" viewBox="0 0 5000 1000"><defs><style>.cls-1{fill:#fff;font-family:AvenirNext-Bold, 'Avenir Next';font-size:859.83px;font-weight:700;}.cls-2{font-family:MyriadPro-Regular, 'Myriad Pro';font-size:12px;}.cls-3{fill:#ffd316;}.cls-4{letter-spacing:-.02em;}.cls-5{letter-spacing:-.01em;}.cls-6{letter-spacing:-.01em;}.cls-7{letter-spacing:.02em;}.cls-8{letter-spacing:.04em;}.cls-9{letter-spacing:.04em;}</style></defs><rect width="5000" height="1000"/><g id="New_Logo"><path class="cls-3" d="M145.92,679.32c8.09,49.28,129.77,141.29,316.87,138.63v-.23c156.78,4.63,285.85-62.53,317.83-138.36h0v-69.61c.32-4.25,0-28.91,0-33.2V245.18c0-12.13-4.22-23.44-11.4-33.07-10.24-13.72-26.62-23.92-45.99-28.05-6.11-1.29-12.47-2.07-19.06-2.07H221.28c-5.7,0-11.24.55-16.6,1.54-19.42,3.57-36.07,13.17-46.83,26.37-8.22,10.06-13.01,22.21-13.01,35.27M577.78,227.51c.27,0-1.23-.2-1.43-.07-31.18,21.08-50.4,45.42-113.56,45.42-59.14,0-82.28-23.85-113.45-44.92-.2-.14-.09-.43.18-.43,0,0,228.25,0,228.25,0ZM274.33,227.44s.16-.02.23.02c42.97,48.06,110.54,79.47,188.23,79.47s138.72-31.43,181.69-79.49c.05-.07,9.22-.07,9.29-.07l36.13.07c.23,0,9.11.14,8.99.3-47.79,66.02-136.41,113.26-236.11,113.26s-185.78-47.24-233.57-113.26c-.11-.16,1.68-.3,1.91-.3,0,0,43.2,0,43.2,0ZM281.1,618.08c-.14-.11,10.15-18.17,10.15-18.17,55.98-9.29,101.14-50.74,101.14-99.93l-.27-122.87c0-.16.09.2.27.23,23.08,4.27,47.08,6.81,71.68,6.81s47.13-2.86,69.57-6.88c.18-.02-.41-.07-.41.07v122.64c0,48.49,45.06,89.89,99.93,99.93.32.07,11.7,18.17,11.36,18.17M296.48,551.61v-205.88c0-.18.23-.3.41-.2,12.85,6.31,26.25,11.95,40.15,16.78.11.05.16.11.16.2v137.47c0,23.03-16.65,42.81-40.34,51.62-.18.07-.43.18-.43,0h.05ZM588.87,499.98v-136.13s.07-.11.18-.14c13.9-4.75,27.3-10.99,40.15-17.19.18-.09.41,0,.41.2v204.91c0,.18-.23.3-.43.23-23.69-8.81-40.34-28.84-40.34-51.85l.02-.02ZM206.79,620.2c-1.89.91-3.88,1.75-5.97,2.5v-347.88c0-.23.34-.32.5-.14,12.01,13.22,25.48,25.51,40.15,36.7.05.05.09.11.09.16v265.64c-1.59,6.36-9.27,30.82-34.77,43.02h0ZM213.72,663.26h493.62c8.93,0,2.84-.09,17.92.2v2.75l-.05.07c-44.02,65.8-162.41,109.43-262.48,109.43s-217.83-43.77-261.89-109.47c0-.02-.07-2.75-.05-2.75M725.23,587.56v35.16c-2.29-.82-4.43-1.77-6.5-2.77-24.66-12.08-32.43-35.7-34.25-42.79v-263.98s.02-.14.09-.16c14.67-11.02,28.09-23.12,40.15-36.13.16-.18.5-.09.5.14v310.54Z"/><path class="cls-3" d="M614.4,685.47c-1.27-.68-2.57-1.29-3.95-1.75-1.39-.52-2.84-.84-4.32-1.14-2.93-.45-6.06-.45-8.99,0-1.48.3-2.93.61-4.32,1.14-1.39.45-2.66,1.07-3.95,1.75-1.18.68-2.38,1.45-3.47,2.36-4.22,3.5-6.7,8.4-6.7,13.42s2.48,9.86,6.7,13.33c4.32,3.57,10.29,5.61,16.24,5.61,1.48,0,3.02-.16,4.5-.39,1.45-.23,2.93-.61,4.32-1.14,1.36-.45,2.66-1.07,3.95-1.75,1.18-.68,2.38-1.45,3.47-2.36,4.22-3.5,6.7-8.4,6.7-13.33s-2.48-9.93-6.7-13.42c-1.11-.91-2.29-1.68-3.47-2.36v.02Z"/><path class="cls-3" d="M505.99,712.61h-.09c-12.38,2.2-20.17,12.29-17.53,22.53,2.38,8.86,11.83,14.92,22.39,14.92,1.66,0,3.32-.16,4.95-.45,12.38-2.2,20.19-12.29,17.53-22.51-2.66-10.22-14.94-16.67-27.25-14.49h0Z"/><path class="cls-3" d="M422.07,712.52c-12.38-2.27-24.6,4.09-27.44,14.33-2.75,10.24,5.06,20.33,17.44,22.67,1.66.3,3.32.45,4.95.45,10.54,0,20.01-6,22.39-14.79,2.77-10.24-4.95-20.4-17.33-22.67h-.02Z"/><path class="cls-3" d="M336.02,685.47c-1.27-.68-2.57-1.29-3.95-1.75-1.39-.52-2.84-.84-4.32-1.14-2.93-.45-6.04-.45-8.99,0-1.48.3-2.84.61-4.32,1.14-1.39.45-2.66,1.07-3.95,1.75-1.18.68-2.38,1.45-3.47,2.36-4.22,3.5-6.7,8.4-6.7,13.42s2.48,9.86,6.7,13.33c4.32,3.57,10.29,5.61,16.24,5.61,1.45,0,3.02-.16,4.5-.39,1.48-.23,2.93-.61,4.32-1.14,1.36-.45,2.66-1.07,3.95-1.75,1.27-.68,2.38-1.45,3.47-2.36,4.22-3.5,6.7-8.4,6.7-13.33s-2.48-9.93-6.7-13.42c-1.11-.91-2.2-1.68-3.47-2.36v.02Z"/></g><text class="cls-2" transform="translate(3461.62 179.47)"><tspan class="cls-5" x="0" y="0">L</tspan><tspan x="5.5" y="0">o</tspan><tspan class="cls-6" x="12.08" y="0">r</tspan><tspan x="15.89" y="0">em ipsum</tspan></text><text class="cls-1" transform="translate(867.49 809.14) scale(.88 1)"><tspan class="cls-7" x="0" y="0">J</tspan><tspan class="cls-9" x="475.48" y="0">AXPL</tspan><tspan class="cls-4" x="2833.1" y="0">A</tspan><tspan class="cls-8" x="3439.27" y="0">YS</tspan></text></svg>