<?xml version="1.0" encoding="UTF-8"?><svg id="Logo" xmlns="http://www.w3.org/2000/svg" viewBox="0 0 2500 1000"><defs><style>.cls-1{fill:#fff;font-family:AvenirNext-Bold, 'Avenir Next';font-size:478.02px;font-weight:700;}.cls-2{fill:#ffd316;}.cls-3{letter-spacing:-.02em;}.cls-4{letter-spacing:.02em;}.cls-5{letter-spacing:.04em;}</style></defs><rect width="2500" height="1000"/><g id="New_Logo"><path class="cls-2" d="M123.32,717.86c9.64,58.77,154.75,168.49,377.87,165.32v-.27c186.96,5.53,340.87-74.56,379-164.99h0v-83.01c.38-5.06,0-34.48,0-39.6V200.17c0-14.46-5.04-27.95-13.6-39.43-12.21-16.36-31.74-28.52-54.84-33.45-7.29-1.54-14.87-2.46-22.72-2.46H213.18c-6.8,0-13.41.65-19.8,1.84-23.16,4.25-43.01,15.71-55.85,31.44-9.8,12-15.52,26.49-15.52,42.06M638.31,179.09c.32,0-1.46-.24-1.71-.08-37.19,25.13-60.1,54.17-135.42,54.17-70.53,0-98.12-28.44-135.28-53.57-.24-.16-.11-.51.22-.51,0,0,272.19,0,272.19,0ZM276.45,179.01s.19-.03.27.03c51.24,57.31,131.81,94.76,224.47,94.76s165.43-37.48,216.67-94.79c.05-.08,11-.08,11.08-.08l43.09.08c.27,0,10.86.16,10.73.35-56.98,78.73-162.66,135.06-281.56,135.06s-221.54-56.33-278.53-135.06c-.14-.19,2-.35,2.28-.35,0,0,51.51,0,51.51,0ZM284.52,644.85c-.16-.14,12.11-21.67,12.11-21.67,66.76-11.08,120.6-60.5,120.6-119.17l-.33-146.52c0-.19.11.24.33.27,27.52,5.09,56.14,8.13,85.48,8.13s56.2-3.41,82.96-8.21c.22-.03-.49-.08-.49.08v146.25c0,57.82,53.73,107.2,119.17,119.17.38.08,13.95,21.67,13.54,21.67M302.86,565.57v-245.51c0-.22.27-.35.49-.24,15.33,7.53,31.31,14.25,47.88,20.01.14.05.19.14.19.24v163.94c0,27.46-19.85,51.05-48.1,61.56-.22.08-.51.22-.51,0h.05ZM651.53,504.01v-162.34s.08-.14.22-.16c16.58-5.66,32.55-13.11,47.88-20.5.22-.11.49,0,.49.24v244.35c0,.22-.27.35-.51.27-28.25-10.51-48.1-34.4-48.1-61.83l.03-.03ZM195.9,647.37c-2.25,1.08-4.63,2.09-7.12,2.98V235.51c0-.27.41-.38.6-.16,14.33,15.76,30.39,30.41,47.88,43.77.05.05.11.14.11.19v316.77c-1.9,7.58-11.05,36.75-41.46,51.3h0ZM204.16,698.72h588.63c10.64,0,3.39-.11,21.37.24v3.28l-.05.08c-52.49,78.46-193.67,130.49-313,130.49s-259.76-52.19-312.3-130.54c0-.03-.08-3.28-.05-3.28M814.14,608.45v41.93c-2.74-.98-5.28-2.11-7.75-3.3-29.41-14.41-38.68-42.58-40.84-51.03v-314.79s.03-.16.11-.19c17.5-13.14,33.5-27.57,47.88-43.09.19-.22.6-.11.6.16v370.31Z"/><path class="cls-2" d="M681.97,725.2c-1.52-.81-3.06-1.54-4.71-2.09-1.65-.62-3.39-1-5.15-1.35-3.49-.54-7.23-.54-10.73,0-1.76.35-3.49.73-5.15,1.35-1.65.54-3.17,1.27-4.71,2.09-1.41.81-2.84,1.73-4.14,2.82-5.04,4.17-7.99,10.02-7.99,16.01s2.95,11.75,7.99,15.9c5.15,4.25,12.27,6.69,19.36,6.69,1.76,0,3.6-.19,5.36-.46,1.73-.27,3.49-.73,5.15-1.35,1.63-.54,3.17-1.27,4.71-2.09,1.41-.81,2.84-1.73,4.14-2.82,5.04-4.17,7.99-10.02,7.99-15.9s-2.95-11.84-7.99-16.01c-1.33-1.08-2.74-2-4.14-2.82v.03Z"/><path class="cls-2" d="M552.7,757.57h-.11c-14.76,2.63-24.05,14.65-20.91,26.87,2.84,10.56,14.11,17.79,26.7,17.79,1.98,0,3.95-.19,5.9-.54,14.76-2.63,24.08-14.65,20.91-26.84-3.17-12.19-17.82-19.88-32.5-17.28h0Z"/><path class="cls-2" d="M452.63,757.46c-14.76-2.71-29.33,4.88-32.72,17.09-3.28,12.21,6.04,24.24,20.8,27.03,1.98.35,3.95.54,5.9.54,12.57,0,23.86-7.15,26.7-17.63,3.3-12.21-5.9-24.32-20.66-27.03h-.03Z"/><path class="cls-2" d="M350.01,725.2c-1.52-.81-3.06-1.54-4.71-2.09-1.65-.62-3.39-1-5.15-1.35-3.49-.54-7.2-.54-10.73,0-1.76.35-3.39.73-5.15,1.35-1.65.54-3.17,1.27-4.71,2.09-1.41.81-2.84,1.73-4.14,2.82-5.04,4.17-7.99,10.02-7.99,16.01s2.95,11.75,7.99,15.9c5.15,4.25,12.27,6.69,19.36,6.69,1.73,0,3.6-.19,5.36-.46,1.76-.27,3.49-.73,5.15-1.35,1.62-.54,3.17-1.27,4.71-2.09,1.52-.81,2.84-1.73,4.14-2.82,5.04-4.17,7.99-10.02,7.99-15.9s-2.95-11.84-7.99-16.01c-1.33-1.08-2.63-2-4.14-2.82v.03Z"/></g><text class="cls-1" transform="translate(1038.31 471.91) scale(.88 1)"><tspan class="cls-4" x="0" y="0">J</tspan><tspan class="cls-5" x="264.34" y="0">A</tspan><tspan class="cls-4" x="630.02" y="0">X</tspan></text><text class="cls-1" transform="translate(1006.16 882.57) scale(.88 1)"><tspan class="cls-5" x="0" y="0">PL</tspan><tspan class="cls-3" x="591.78" y="0">A</tspan><tspan class="cls-5" x="928.77" y="0">YS</tspan></text></svg>