<?xml version="1.0" encoding="utf-8"?>
<!-- Generator: Adobe Illustrator 26.0.3, SVG Export Plug-In . SVG Version: 6.00 Build 0)  -->
<svg version="1.1" id="Layer_1" xmlns="http://www.w3.org/2000/svg" xmlns:xlink="http://www.w3.org/1999/xlink" x="0px" y="0px"
	 viewBox="0 0 60 60" style="enable-background:new 0 0 60 60;" xml:space="preserve" fill="#000">
<g>
	<path d="M58.9,50.7L55,46.8c0,0,0,0,0,0l-0.3-0.3c3.1-4.7,5-10.4,5.1-16.4C60.1,13.5,46.6,0,30,0C13.7,0,0.1,13.1,0,29.8
		C-0.1,46.2,13,59.9,29.8,60c6.2,0,12-1.8,16.8-5.1l4,4c0.7,0.7,1.7,1.1,2.7,1.1s2-0.4,2.7-1.1l2.8-2.8
		C60.4,54.6,60.4,52.2,58.9,50.7z M28.4,3.5c0.1,4.8,0.1,9.6,0.1,14.5c-3.2-0.1-6.4-0.7-9.5-1.6C21.2,11.4,24.3,7.1,28.4,3.5z
		 M24,3.6c0,0.2-0.1,0.3-0.2,0.4c-2.6,2.7-4.8,5.8-6.5,9.2c-0.3,0.7-0.6,1.3-0.9,2c-0.1,0.2-0.2,0.3-0.4,0.2c-2.1-0.9-4.2-2-6.1-3.2
		c0,0-0.1-0.1-0.2-0.2C13.7,7.6,18.4,4.9,24,3.6z M3,28.4c0.1-2.2,0.4-4.3,1-6.2c0.8-2.8,2.1-5.4,3.8-7.8l0.1-0.1
		c0.6,0.4,1.2,0.7,1.8,1.1c1.7,1,3.5,1.9,5.3,2.7c0.2,0.1,0.3,0.2,0.2,0.4c-0.9,2.7-1.5,5.5-1.7,8.4c0,0.5-0.1,1-0.1,1.5
		c0,0.2-0.1,0.3-0.3,0.3c-3.3,0-6.5,0-9.8,0C3.1,28.7,2.9,28.7,3,28.4z M8,45.8c-0.3-0.4-0.6-0.8-0.9-1.3c-2-3.1-3.3-6.5-3.9-10.2
		c-0.1-0.8-0.2-1.7-0.3-2.5c0-0.3,0.2-0.3,0.4-0.3c2.5,0,5,0,7.5,0c0.8,0,1.7,0,2.6,0c0.2,3.6,0.7,7,1.8,10.4
		C12.7,42.9,10.3,44.2,8,45.8z M9.8,48c2-1.4,4.2-2.5,6.5-3.4c1.8,4.4,4.3,8.2,7.5,11.7C18.2,55,13.6,52.3,9.8,48z M28.5,56.8
		c-4.3-3.7-7.4-8-9.5-13.1c1-0.7,8-1.9,9.5-1.7C28.5,46.9,28.5,51.8,28.5,56.8z M28.6,38.7c0,0.3-0.1,0.4-0.4,0.4
		c-3.3,0.1-6.6,0.7-9.8,1.7c-0.1,0-0.3,0.1-0.4,0.1c-1-3.1-1.5-6.2-1.7-9.4c0.6,0,1.1,0,1.7,0c3.4,0,6.8,0,10.2,0
		c0.3,0,0.4,0.1,0.4,0.4C28.6,34.1,28.6,36.4,28.6,38.7z M28.2,28.5c-3.8,0-7.6,0-11.4,0c-0.5,0-0.5,0-0.5-0.5
		c0.2-2.6,0.6-5.2,1.3-7.7c0.1-0.3,0.2-0.6,0.3-1c0.1-0.2,0.2-0.3,0.4-0.2c1.8,0.4,3.6,0.9,5.4,1.2c1.3,0.2,2.7,0.3,4.1,0.4
		c0.2,0,0.4,0,0.7,0.1c0,0.5,0,1,0,1.4c0.1,2.1,0.1,4,0.1,5.9C28.6,28.4,28.5,28.5,28.2,28.5z M56.2,36c-0.1-0.2-0.3-0.4-0.4-0.6
		c-0.6-0.6-1.3-1.1-2.1-1.3l-7.3-1.9c0-0.1,0-0.2,0-0.3c0-0.5,0-0.5,0.5-0.5c3.2,0,6.3,0,9.5,0c0.1,0,0.3,0,0.5,0
		C56.8,33,56.6,34.5,56.2,36z M52.1,14.2c0.4,0.6,0.8,1.2,1.2,1.8c1.8,3,3,6.3,3.6,9.9c0.1,0.7,0.2,1.5,0.3,2.2c0,0.3,0,0.4-0.4,0.4
		c-3.2,0-6.5,0-9.7,0c-0.3,0-0.4-0.1-0.4-0.4c-0.1-2.4-0.8-8.6-1.8-10.1C47.3,17.1,49.7,15.8,52.1,14.2z M50.2,12
		c-0.7,0.4-1.3,0.9-2,1.2c-1.4,0.7-2.8,1.4-4.1,2c-0.3,0.1-0.4,0.1-0.6-0.2c-1.8-4.1-4.2-7.9-7.3-11.1C36.1,3.8,36,3.7,36,3.6
		C41.6,4.9,46.3,7.7,50.2,12z M31.5,3.5c4.1,3.6,7.3,7.9,9.4,12.8c-0.7,0.5-5.8,1.7-9.4,1.7C31.5,13.2,31.5,8.4,31.5,3.5z
		 M31.5,21.2c0-0.1,0-0.1,0-0.2c0.9-0.1,1.8-0.1,2.6-0.2c2-0.2,3.9-0.5,5.9-1.1c0.6-0.2,1.2-0.3,1.7-0.5c0.2-0.1,0.3,0,0.4,0.2
		c0.7,2.1,1.1,4.2,1.4,6.4c0.1,0.8,0.1,1.6,0.2,2.4c0,0.3-0.1,0.4-0.4,0.4c-3.8,0-7.6,0-11.5,0c-0.2,0-0.4,0-0.4-0.3
		C31.5,25.9,31.5,23.5,31.5,21.2z M43.3,31.5C43.3,31.5,43.3,31.5,43.3,31.5L43.3,31.5C43.3,31.5,43.3,31.5,43.3,31.5z M31.4,56.8
		c0-4.7,0-9.2,0-13.9l2.8,10.8v0.1c0,0.2,0.1,0.2,0.1,0.2C33.4,55,32.4,55.9,31.4,56.8z M56.7,53.9l-2.8,2.8c-0.3,0.3-0.8,0.3-1.1,0
		l-3.6-3.6L47,51l-2.5-2.6l-4.9,4.9c0,0,0,0,0,0c-0.3,0.3-0.6,0.4-1,0.4c-0.6,0-1.1-0.4-1.3-0.9c0,0,0,0,0,0l-0.4-1.7l-2.3-8.9
		c0,0,0,0,0,0l0-0.1l0,0l-0.8-2.9l-1.5-5.6c-0.1-0.2-0.1-0.5,0-0.8c0.1-0.3,0.3-0.5,0.6-0.7c0.3-0.2,0.6-0.2,1,0l9.6,2.5l2.9,0.8
		l6.7,1.8c0.2,0.1,0.5,0.2,0.6,0.4c0.2,0.3,0.4,0.6,0.3,1c0,0.4-0.2,0.7-0.5,1L49,43.9l-0.6,0.6l5.3,5.2l3,3.1
		C57,53.1,57,53.6,56.7,53.9z"/>
</g>
</svg>
