<?xml version="1.0" encoding="UTF-8"?><svg id="Logo" xmlns="http://www.w3.org/2000/svg" viewBox="0 0 991.45 1200"><defs><style>.cls-1{fill:#ffd316;}</style></defs><g id="New_Logo"><path class="cls-1" d="m26.79,920.19c11.92,87.98,191.43,251.85,467.45,247.12h0c231.28,8.28,421.66-111.63,468.85-247.03h0v-124.27c.46-7.58,0-51.61,0-59.29V145.05c0-21.67-6.22-41.84-16.81-59.02-15.1-24.49-39.25-42.72-67.84-50.06-9-2.31-18.38-3.67-28.11-3.67H137.95c-8.42,0-16.59.99-24.48,2.74-28.64,6.35-53.2,23.51-69.08,47.07-12.12,17.98-19.2,39.64-19.2,62.96m639.28-31.77c.4,0,.59.52.28.77-45.99,37.63-104.72,60.23-168.64,60.23s-122.65-22.6-168.64-60.23c-.31-.25-.12-.77.28-.77h336.72Zm-448.24,0c.13,0,.25.06.33.16,63.37,85.83,164.92,141.83,279.55,141.83s216.18-56,279.55-141.83c.08-.1.2-.16.33-.16h66.18c.33,0,.54.37.37.65-70.49,117.89-199.36,197.04-346.43,197.04S220.17,231.82,149.68,113.93c-.17-.28.04-.65.37-.65h66.18Zm173.74,486.74v-219.42c0-.26.24-.46.5-.4,34.03,7.6,69.35,11.75,105.64,11.75s69.51-3.88,102.61-11.05c.26-.06.5.14.5.4v218.71c0,86.59,61.1,159.86,142.04,177.78.48.11.43.73-.06.73H244.54c-1.43.29-2.9.49-4.34.74.09-.25.16-.49.25-.74h4.09c82.59-16.58,145.43-90.69,145.43-178.5Zm-141.09,92.17v-367.59c0-.32.34-.51.62-.35,18.96,11.27,38.73,21.32,59.24,29.96.15.06.25.21.25.38v245.44c0,41.1-24.56,76.85-59.49,92.57-.28.13-.62-.09-.62-.4Zm431.32-92.17v-244.23c0-.17.1-.31.25-.38,20.5-8.47,40.27-18.33,59.24-29.42.28-.16.61.03.61.35v365.85c0,.31-.34.53-.62.4-34.94-15.74-59.49-51.48-59.49-92.57ZM116.58,814.66c-2.79,1.61-5.72,3.11-8.8,4.46V197.98c0-.4.49-.56.73-.24,17.73,23.61,37.6,45.52,59.25,65.53.08.08.13.18.13.3v474.2s0,.05,0,.08c-2.36,11.36-13.66,55.02-51.3,76.81Zm377.56,277.61c-147.48,0-321.33-78.16-386.32-195.46-.03-.05-.03-.03-.04-.08-.04-.23-.8-4.5-1.56-11.18-1.56-13.84,9.26-26.06,23.19-26.06h728.17c13.15,0,23.82,10.66,23.82,23.82v13.38c0,.08-.02.15-.06.22-64.92,117.48-239.57,195.36-387.21,195.36Zm387.26-335.94v62.79c-3.38-1.48-6.54-3.17-9.57-4.97-36.38-21.58-47.85-63.73-50.53-76.41,0-.03,0-.06,0-.09v-471.23c0-.11.05-.22.13-.3,21.64-19.65,41.44-41.28,59.25-64.51.24-.31.73-.15.73.25v554.47Z"/><path class="cls-1" d="m238.23,764.98c1.45-.25,2.91-.45,4.34-.74h-4.09c-.08.25-.16.49-.25.74Z"/><path class="cls-1" d="m762.81,901.76c-2.26-1.45-4.54-2.75-6.96-3.72-2.44-1.14-5.03-1.79-7.61-2.44-5.19-.96-10.69-.96-15.88,0-2.59.65-5.19,1.3-7.61,2.44-2.44.96-4.7,2.26-6.98,3.72-2.1,1.45-4.21,3.08-6.15,5.03-7.45,7.45-11.82,17.97-11.82,28.66s4.37,21.05,11.82,28.5c7.62,7.62,18.14,11.99,28.68,11.99,2.59,0,5.35-.32,7.94-.81,2.58-.49,5.17-1.3,7.61-2.44,2.42-.97,4.7-2.26,6.96-3.72,2.1-1.46,4.21-3.08,6.15-5.03,7.45-7.45,11.83-17.97,11.83-28.5s-4.38-21.21-11.83-28.66c-1.95-1.95-4.05-3.58-6.15-5.03Z"/><path class="cls-1" d="m571.45,959.74h-.17c-21.86,4.7-35.62,26.24-30.94,48.12,4.22,18.95,20.9,31.9,39.53,31.9,2.91,0,5.84-.33,8.75-.98,21.86-4.7,35.64-26.24,30.94-48.1-4.7-21.86-26.4-35.64-48.1-30.94Z"/><path class="cls-1" d="m423.3,959.59c-21.86-4.86-43.4,8.75-48.43,30.61-4.86,21.88,8.92,43.42,30.78,48.43,2.91.65,5.84.98,8.75.98,18.62,0,35.31-12.8,39.51-31.59,4.87-21.88-8.75-43.58-30.61-48.43Z"/><path class="cls-1" d="m271.38,901.76c-2.26-1.45-4.54-2.75-6.96-3.72-2.44-1.14-5.03-1.79-7.62-2.44-5.17-.96-10.68-.96-15.87,0-2.59.65-5.03,1.3-7.61,2.44-2.44.96-4.7,2.26-6.98,3.72-2.1,1.45-4.21,3.08-6.15,5.03-7.45,7.45-11.82,17.97-11.82,28.66s4.37,21.05,11.82,28.5c7.61,7.62,18.14,11.99,28.68,11.99,2.58,0,5.35-.32,7.92-.81,2.59-.49,5.19-1.3,7.62-2.44,2.42-.97,4.7-2.26,6.96-3.72,2.26-1.46,4.21-3.08,6.15-5.03,7.45-7.45,11.83-17.97,11.83-28.5s-4.38-21.21-11.83-28.66c-1.95-1.95-3.89-3.58-6.15-5.03Z"/></g></svg>