<svg preserveAspectRatio="xMidYMid meet" data-bbox="0.013 0.012 1358.206 898.808" xmlns="http://www.w3.org/2000/svg" viewBox="0 0 1359 899" fill-rule="evenodd" clip-rule="evenodd" stroke-linejoin="round" stroke-miterlimit="2" data-type="ugc" role="presentation" aria-hidden="true" aria-label="">
    <g>
        <path d="M376.588 323.002 481.283.012l104.679 322.99H376.588z" fill="#fad022" fill-rule="nonzero"></path>
        <path d="m292.06 579.393 159.253 116.976-256.993 199.03 97.74-316.006z" fill="#fad022" fill-rule="nonzero"></path>
        <path d="M670.622 98.18 650.57 46.763h-.33l-20.4 51.417h40.782zm-26.145-71.062h13.23l46.08 112.056h-17.054l-10.78-27.696H624.69l-10.663 27.696h-17.021l47.471-112.056z" fill="#0d0c08" fill-rule="nonzero"></path>
        <path d="M828.633 51.339c-3.047-4.129-6.905-7.26-11.54-9.513-4.67-2.185-9.488-3.32-14.456-3.32-6.093 0-11.607 1.221-16.508 3.595-4.918 2.34-9.123 5.608-12.617 9.702-3.494 4.129-6.21 8.962-8.163 14.467-1.904 5.574-2.864 11.491-2.864 17.822 0 5.917.91 11.49 2.748 16.79 1.805 5.263 4.454 9.908 7.882 13.916 3.444 4.008 7.65 7.173 12.617 9.478 4.967 2.34 10.613 3.475 16.905 3.475 6.176 0 11.59-1.307 16.293-3.94 4.636-2.614 8.61-6.33 11.839-11.077l12.319 9.667c-.811 1.136-2.235 2.804-4.255 4.955-2.037 2.184-4.703 4.352-8.064 6.502-3.345 2.15-7.385 4.06-12.087 5.694-4.686 1.634-10.183 2.46-16.343 2.46-8.527 0-16.21-1.686-23.048-5.04-6.839-3.39-12.684-7.827-17.502-13.315-4.818-5.47-8.494-11.697-11.027-18.596-2.517-6.898-3.792-13.916-3.792-20.97 0-8.652 1.358-16.651 4.106-23.98 2.732-7.327 6.557-13.64 11.508-18.99 4.901-5.299 10.812-9.462 17.7-12.42 6.905-2.942 14.488-4.422 22.8-4.422 7.104 0 14.074 1.411 20.93 4.267 6.805 2.872 12.434 7.242 16.773 13.16l-12.154 9.633z" fill="#0d0c08" fill-rule="nonzero"></path>
        <path d="M860.739 27.13h14.587v97.795h49.442v14.26h-64.03V27.13z" fill="#0d0c08" fill-rule="nonzero"></path>
        <path d="M1005.686 98.18 985.6 46.763h-.298l-20.4 51.417h40.783zm-26.178-71.062h13.263l46.08 112.056h-17.054l-10.78-27.696h-51.263l-10.663 27.696h-17.005l47.422-112.056z" fill="#0d0c08" fill-rule="nonzero"></path>
        <path d="M1056.022 115.761c2.649 4.129 6.01 7.14 10.116 9.083 4.123 1.961 8.346 2.959 12.7 2.959 2.45 0 4.918-.447 7.451-1.204a22.937 22.937 0 0 0 6.921-3.544 19.434 19.434 0 0 0 5.084-5.883c1.324-2.305 1.987-5.023 1.987-8.068 0-4.318-1.292-7.603-3.941-9.891-2.65-2.271-5.895-4.146-9.819-5.694a190.115 190.115 0 0 0-12.766-4.421c-4.603-1.463-8.892-3.424-12.8-5.952-3.89-2.53-7.136-5.9-9.785-10.184-2.65-4.283-3.957-10.08-3.957-17.34 0-3.268.662-6.743 2.02-10.442 1.39-3.698 3.56-7.07 6.474-10.132 2.964-3.045 6.722-5.625 11.326-7.69 4.636-2.03 10.183-3.079 16.69-3.079 5.845 0 11.508.86 16.872 2.546 5.348 1.703 10.084 5.127 14.157 10.287l-11.872 11.25c-1.838-2.958-4.437-5.332-7.765-7.121-3.345-1.806-7.153-2.7-11.392-2.7-4.073 0-7.435.55-10.117 1.65-2.715 1.119-4.851 2.53-6.474 4.284-1.623 1.72-2.782 3.595-3.411 5.608-.695 1.995-.993 3.853-.993 5.539 0 4.748 1.324 8.377 3.94 10.923 2.633 2.53 5.911 4.593 9.82 6.159a112.984 112.984 0 0 0 12.782 4.283c4.603 1.273 8.842 3.028 12.766 5.299a30.427 30.427 0 0 1 9.819 9.168c2.616 3.854 3.94 9.152 3.94 15.93 0 5.35-.993 10.218-2.947 14.536-1.987 4.335-4.67 7.964-8.014 10.923-3.345 2.959-7.285 5.23-11.839 6.812-4.57 1.6-9.421 2.357-14.604 2.357-6.904 0-13.428-1.256-19.604-3.785-6.21-2.545-11.11-6.433-14.753-11.697l11.988-10.769z" fill="#0d0c08" fill-rule="nonzero"></path>
        <path d="M1142.106 115.761c2.649 4.129 5.994 7.14 10.117 9.083 4.09 1.961 8.312 2.959 12.716 2.959 2.4 0 4.901-.447 7.434-1.204 2.534-.809 4.852-1.979 6.905-3.544 2.103-1.6 3.792-3.544 5.116-5.883 1.325-2.305 1.987-5.023 1.987-8.068 0-4.318-1.324-7.603-3.94-9.891-2.666-2.271-5.912-4.146-9.82-5.694a198.662 198.662 0 0 0-12.815-4.421c-4.57-1.463-8.842-3.424-12.766-5.952-3.875-2.53-7.17-5.9-9.786-10.184-2.649-4.283-3.974-10.08-3.974-17.34 0-3.268.663-6.743 2.054-10.442 1.34-3.698 3.543-7.07 6.474-10.132 2.947-3.045 6.706-5.625 11.325-7.69 4.636-2.03 10.167-3.079 16.657-3.079 5.862 0 11.492.86 16.856 2.546 5.398 1.703 10.1 5.127 14.157 10.287l-11.839 11.25c-1.838-2.958-4.42-5.332-7.765-7.121-3.345-1.806-7.137-2.7-11.409-2.7-4.073 0-7.418.55-10.133 1.65-2.682 1.119-4.818 2.53-6.441 4.284-1.656 1.72-2.765 3.595-3.427 5.608-.663 1.995-.96 3.853-.96 5.539 0 4.748 1.29 8.377 3.94 10.923 2.616 2.53 5.895 4.593 9.819 6.159 3.874 1.582 8.13 3.027 12.766 4.283 4.603 1.273 8.825 3.028 12.733 5.299 3.924 2.287 7.202 5.332 9.852 9.168 2.6 3.854 3.924 9.152 3.924 15.93 0 5.35-.96 10.218-2.93 14.536-2.02 4.335-4.67 7.964-8.015 10.923-3.328 2.959-7.285 5.23-11.822 6.812-4.62 1.6-9.471 2.357-14.637 2.357-6.872 0-13.412-1.256-19.621-3.785-6.16-2.545-11.077-6.433-14.72-11.697l11.988-10.769z" fill="#0d0c08" fill-rule="nonzero"></path>
        <path fill="#0d0c08" d="M1241.121 27.118v112.038h-14.604V27.118h14.604z"></path>
        <path d="M1343.78 51.339c-3.063-4.129-6.888-7.26-11.557-9.513-4.67-2.185-9.455-3.32-14.422-3.32-6.094 0-11.607 1.221-16.508 3.595-4.951 2.34-9.124 5.608-12.617 9.702-3.494 4.129-6.243 8.962-8.163 14.467-1.938 5.574-2.865 11.491-2.865 17.822 0 5.917.894 11.49 2.732 16.79 1.821 5.263 4.438 9.908 7.865 13.916 3.46 4.008 7.683 7.173 12.65 9.478 4.968 2.34 10.597 3.475 16.906 3.475 6.16 0 11.59-1.307 16.26-3.94 4.636-2.614 8.61-6.33 11.838-11.077l12.32 9.667c-.795 1.136-2.236 2.804-4.223 4.955-2.053 2.184-4.735 4.352-8.097 6.502-3.344 2.15-7.351 4.06-12.087 5.694-4.686 1.634-10.15 2.46-16.342 2.46-8.495 0-16.177-1.686-23.049-5.04-6.838-3.39-12.683-7.827-17.502-13.315-4.785-5.47-8.46-11.697-11.027-18.596-2.517-6.898-3.792-13.916-3.792-20.97 0-8.652 1.391-16.651 4.123-23.98 2.749-7.327 6.574-13.64 11.491-18.99 4.901-5.299 10.813-9.462 17.7-12.42 6.905-2.942 14.522-4.422 22.8-4.422 7.104 0 14.091 1.411 20.93 4.267 6.838 2.872 12.435 7.242 16.806 13.16l-12.17 9.633z" fill="#0d0c08" fill-rule="nonzero"></path>
        <path d="M712.182 194.182H677.51v-14.226h83.948v14.226h-34.705v97.778h-14.571v-97.778z" fill="#0d0c08" fill-rule="nonzero"></path>
        <path d="M781.543 179.95h14.604v46.533h55.8V179.95h14.62v112.056h-14.62v-51.263h-55.8v51.263h-14.604V179.95z" fill="#0d0c08" fill-rule="nonzero"></path>
        <path d="M892.712 179.95h69.51v14.227h-54.906v33.407h51.114v14.26h-51.114v35.902h57.621v14.26h-72.225V179.95z" fill="#0d0c08" fill-rule="nonzero"></path>
        <path d="m1054.978 251.001-20.051-51.417h-.331l-20.4 51.417h40.782zm-26.144-71.062h13.23l46.113 112.055h-17.055L1060.31 264.3h-51.23l-10.663 27.695h-17.005l47.422-112.055z" fill="#0d0c08" fill-rule="nonzero"></path>
        <path d="M1117.054 194.182h-34.672v-14.226h83.931v14.226h-34.655v97.778h-14.604v-97.778z" fill="#0d0c08" fill-rule="nonzero"></path>
        <path d="M1199.495 229.326h19.141c2.831 0 5.663-.24 8.444-.705 2.799-.482 5.299-1.359 7.468-2.615 2.17-1.255 3.908-3.079 5.232-5.453 1.325-2.374 1.97-5.453 1.97-9.272 0-3.784-.645-6.88-1.97-9.255-1.324-2.374-3.063-4.163-5.232-5.453-2.169-1.256-4.67-2.133-7.468-2.58a47.874 47.874 0 0 0-8.444-.74h-19.14v36.073zm-14.587-49.387h37.834c6.888 0 12.584.997 17.038 2.924 4.47 1.978 8.014 4.438 10.58 7.466 2.55 3.01 4.389 6.365 5.382 10.115 1.01 3.767 1.54 7.362 1.54 10.837 0 3.613-.63 7.053-1.838 10.356a30.086 30.086 0 0 1-5.2 9.048c-2.317 2.684-5.099 4.955-8.41 6.813-3.279 1.84-6.955 2.941-11.028 3.388l30.599 51.108h-18.28l-27.37-49.353h-16.26v49.353h-14.587V179.94z" fill="#0d0c08" fill-rule="nonzero"></path>
        <path d="M1282.367 179.95h69.51v14.227h-54.923v33.407h51.131v14.26h-51.13v35.902h57.637v14.26h-72.225V179.95z" fill="#0d0c08" fill-rule="nonzero"></path>
        <path d="M1167.688 680.178c-14.787 23.155-34.209 40.804-58.152 52.932-23.942 12.127-49.872 18.2-77.821 18.2-43.415 0-79.693-15.276-108.818-45.758-29.125-30.517-43.68-67.795-43.68-111.919 0-44.123 14.637-81.865 43.945-113.311 29.307-31.412 67.191-47.1 113.719-47.1 27.602 0 53.018 6.434 76.265 19.267 23.28 12.867 41.444 30.878 54.542 54.032l-33.58 22.604c-25.184-34.92-58.101-52.381-98.75-52.381-32.056 0-58.946 10.94-80.67 32.805-21.708 21.847-32.553 48.975-32.553 81.35 0 32.322 10.663 60.07 32.056 83.224 21.343 23.154 48.415 34.732 81.166 34.732 39.276 0 72.375-17.65 99.265-52.932l33.066 24.255z" fill="#008db6" fill-rule="nonzero"></path>
        <path d="m945.333 342.27-15.631 40.65h276.466v358.204h45.799V382.92h103.122v-40.683l-409.756.034z" fill="#008db6" fill-rule="nonzero"></path>
        <path d="M913.773 342.24H.013l297.064 215.958L760.895 898.82l152.878-556.58z" fill="#008db6" fill-rule="nonzero"></path>
        <path d="M797.455 611.949c0 13.331-1.97 25.89-5.878 37.69-3.941 11.818-10.084 22.14-18.43 30.947-8.311 8.808-18.643 15.757-30.88 20.935-12.285 5.144-26.74 7.724-43.398 7.724a130 130 0 0 1-27.436-2.924c-9.007-1.91-17.253-5.144-24.638-9.668-7.401-4.49-13.312-10.287-17.7-17.374-4.405-7.07-6.64-15.534-6.64-25.46 0-15.017 5.696-26.818 17.055-35.437 11.325-8.566 25.002-14.897 40.964-18.991 15.961-4.077 32.619-6.657 49.955-7.741 17.385-1.032 31.84-1.6 43.43-1.6h23.596v21.899zm45.799-74.073c0-18.459-3.213-34.336-9.687-47.668-6.507-13.297-15.067-24.393-25.697-33.2-10.664-8.774-23.248-15.328-37.835-19.646-14.604-4.266-29.754-6.433-45.5-6.433-61.083 0-106.915 14.622-137.43 43.814l27.767 30.276c28.214-23.619 61.33-35.437 99.264-35.437 55.551 0 83.319 26.01 83.319 77.961v7.724h-22.933c-19.422 0-40.831.86-64.211 2.58-23.363 1.72-45.352 6.004-65.95 12.868-20.598 6.898-37.735 17.305-51.379 31.256-13.643 13.951-20.482 33.166-20.482 57.663 0 14.604 3.13 27.386 9.388 38.31 6.243 10.957 14.555 20.195 25.003 27.712 10.398 7.552 22.287 13.108 35.715 16.755 13.445 3.63 27.32 5.47 41.66 5.47 26.41 0 48.73-4.403 67.042-13.211 18.247-8.773 34.126-23.31 47.521-43.47h1.39c0 8.154.365 16.531 1.06 25.132.696 8.584 1.74 16.532 3.097 23.826l.1 1.41 38.778-141.334v-62.358z" fill="#ffffff" fill-rule="nonzero"></path>
    </g>
</svg>